<?xml version="1.0" encoding="UTF-8"?>
<svg width="493px" height="486px" viewBox="0 0 493 486" version="1.1" xmlns="http://www.w3.org/2000/svg" xmlns:xlink="http://www.w3.org/1999/xlink" xmlns:sketch="http://www.bohemiancoding.com/sketch/ns">
    <!-- Generator: Sketch 3.5.2 (25235) - http://www.bohemiancoding.com/sketch -->
    <title>Untitled 5</title>
    <desc>Created with Sketch.</desc>
    <defs></defs>
      <g id="simple" transform="rotate(0) translate(-10,-20) scale(1,1)">
          <path d="M102.9,264.700004 L81.68,264.700004 L81.68,286.500004 L102.9,286.500004 L102.9,264.700004 Z" id="electrode0"></path>
          <path d="M81.44,264.400004 L103.1,264.400004 L103.1,242.700004 L81.44,242.700004 L81.44,264.400004 Z" id="electrode1"></path>
          <path d="M124.8,286.400004 L124.8,264.700004 L103.7,264.700004 L103.7,286.400004 L124.8,286.400004 Z" id="electrode2"></path>
          <path d="M367.1,307.100004 L368.3,308.300004 L387.5,308.300004 L388.7,307.100004 L388.7,297.500004 L388.7,287.900004 L387.5,286.700004 L368.3,286.700004 L367.1,287.900004 L367.1,297.500004 L367.1,307.100004 Z" id="electrode3"></path>
          <path d="M190.8,286.400004 L190.8,264.700004 L169.6,264.700004 L169.6,286.400004 L190.8,286.400004 Z" id="electrode4"></path>
          <path d="M146.8,264.700004 L125.6,264.700004 L125.6,286.500004 L146.8,286.500004 L146.8,264.700004 Z" id="electrode5"></path>
          <path d="M103.4,264.400004 L125.1,264.400004 L125.1,242.700004 L103.4,242.700004 L103.4,264.400004 Z" id="electrode6"></path>
          <path d="M125.4,264.400004 L147.1,264.400004 L147.1,242.700004 L125.4,242.700004 L125.4,264.400004 Z" id="electrode7"></path>
          <path d="M279.2,307.300004 L280.4,308.500004 L299.6,308.500004 L300.9,307.300004 L300.9,297.600004 L300.9,288.000004 L299.6,286.800004 L280.4,286.800004 L279.2,288.000004 L279.2,297.600004 L279.2,307.300004 Z" id="electrode8"></path>
          <path d="M212.7,264.700004 L191.5,264.700004 L191.5,286.500004 L212.7,286.500004 L212.7,264.700004 Z" id="electrode9"></path>
          <path d="M256.9,242.700004 L235.2,242.700004 L235.2,264.400004 L256.9,264.400004 L256.9,242.700004 Z" id="electrode10"></path>
          <path d="M279.4,286.500004 L300.6,286.500004 L300.6,264.700004 L279.4,264.700004 L279.4,286.500004 Z" id="electrode11"></path>
          <path d="M344.8,242.700004 L323.1,242.700004 L323.1,264.400004 L344.8,264.400004 L344.8,242.700004 Z" id="electrode12"></path>
          <path d="M389.3,220.500004 L410.5,220.500004 L410.5,198.600004 L389.3,198.600004 L389.3,220.500004 Z" id="electrode13"></path>
          <path d="M366.8,220.800004 L345.1,220.800004 L345.1,242.400004 L366.8,242.400004 L366.8,220.800004 Z" id="electrode14"></path>
          <path d="M301.4,198.800004 L301.4,220.500004 L322.6,220.500004 L322.6,198.800004 L301.4,198.800004 Z" id="electrode15"></path>
          <path d="M344.8,220.800004 L323.1,220.800004 L323.1,242.400004 L344.8,242.400004 L344.8,220.800004 Z" id="electrode16"></path>
          <path d="M388.7,220.800004 L367.1,220.800004 L367.1,242.400004 L388.7,242.400004 L388.7,220.800004 Z" id="electrode17"></path>
          <path d="M345.3,220.500004 L366.5,220.500004 L366.5,198.600004 L345.3,198.600004 L345.3,220.500004 Z" id="electrode18"></path>
          <path d="M322.8,220.800004 L301.1,220.800004 L301.1,242.400004 L322.8,242.400004 L322.8,220.800004 Z" id="electrode19"></path>
          <path d="M279.4,220.500004 L300.6,220.500004 L300.6,198.600004 L279.4,198.600004 L279.4,220.500004 Z" id="electrode20"></path>
          <path d="M323.4,220.500004 L344.6,220.500004 L344.6,198.600004 L323.4,198.600004 L323.4,220.500004 Z" id="electrode21"></path>
          <path d="M300.9,220.800004 L279.2,220.800004 L279.2,242.400004 L300.9,242.400004 L300.9,220.800004 Z" id="electrode22"></path>
          <path d="M125.1,176.500004 L125.1,154.800004 L125.1,133.200004 L103.4,133.200004 L103.4,154.800004 L103.4,176.500004 L125.1,176.500004 Z" id="electrode23"></path>
          <path d="M146.8,13.8800037 L133.1,3.73046871e-06 L95.37,3.73046871e-06 L81.68,13.8800037 L81.68,160.400004 L103.1,160.400004 L103.1,154.800004 L103.1,133.200004 L103.1,132.900004 L125.4,132.900004 L125.4,154.800004 L125.4,160.400004 L146.8,160.400004 L146.8,13.8800037 Z" id="electrode24"></path>
          <path d="M388.7,176.500004 L388.7,154.800004 L388.7,133.200004 L367.1,133.200004 L367.1,154.800004 L367.1,176.500004 L388.7,176.500004 Z" id="electrode25"></path>
          <path d="M410.5,13.8800037 L396.8,3.73046871e-06 L359,3.73046871e-06 L345.3,13.8800037 L345.3,160.400004 L366.8,160.400004 L366.8,154.800004 L366.8,133.200004 L366.8,132.900004 L389,132.900004 L389,154.800004 L389,160.400004 L410.5,160.400004 L410.5,13.8800037 Z" id="electrode26"></path>
          <path d="M411,237.000004 L421.8,237.000004 L421.8,198.600004 L411.2,198.600004 L411.2,220.500004 L411,220.800004 L411,237.000004 Z" id="electrode27"></path>
          <path d="M80.9,198.600004 L70.3,198.600004 L70.3,237.000004 L81.14,237.000004 L81.14,220.800004 L80.9,220.500004 L80.9,198.600004 Z" id="electrode28"></path>
          <path d="M213,176.500004 L213,154.800004 L213,133.200004 L191.3,133.200004 L191.3,154.800004 L191.3,176.500004 L213,176.500004 Z" id="electrode29"></path>
          <path d="M234.7,13.8800037 L221,3.73046871e-06 L183.3,3.73046871e-06 L169.6,13.8800037 L169.6,160.400004 L191,160.400004 L191,154.800004 L191,133.200004 L191,132.900004 L213.3,132.900004 L213.3,154.800004 L213.3,160.400004 L234.7,160.400004 L234.7,13.8800037 Z" id="electrode30"></path>
          <path d="M300.9,176.500004 L300.9,154.800004 L300.9,133.200004 L279.2,133.200004 L279.2,154.800004 L279.2,176.500004 L300.9,176.500004 Z" id="electrode31"></path>
          <path d="M322.6,13.8800037 L308.9,3.73046871e-06 L271.1,3.73046871e-06 L257.5,13.8800037 L257.5,160.400004 L278.9,160.400004 L278.9,154.800004 L278.9,133.200004 L278.9,132.900004 L301.1,132.900004 L301.1,154.800004 L301.1,160.400004 L322.6,160.400004 L322.6,13.8800037 Z" id="electrode32"></path>
          <path d="M278.9,242.700004 L257.2,242.700004 L257.2,264.400004 L278.9,264.400004 L278.9,242.700004 Z" id="electrode33"></path>
          <path d="M323.4,286.500004 L344.6,286.500004 L344.6,264.700004 L323.4,264.700004 L323.4,286.500004 Z" id="electrode34"></path>
          <path d="M278.9,330.300004 L278.9,324.800004 L257.5,324.800004 L257.5,471.300004 L271.1,485.200004 L308.9,485.200004 L322.6,471.300004 L322.6,324.800004 L301.1,324.800004 L301.1,330.300004 L301.1,352.300004 L278.9,352.300004 L278.9,352.000004 L278.9,330.300004 Z" id="electrode35"></path>
          <path d="M279.2,352.000004 L300.9,352.000004 L300.9,330.300004 L300.9,308.600004 L279.2,308.600004 L279.2,330.300004 L279.2,352.000004 Z" id="electrode36"></path>
          <path d="M123.9,286.700004 L104.6,286.700004 L103.4,287.900004 L103.4,297.500004 L103.4,307.100004 L104.6,308.300004 L123.9,308.300004 L125.1,307.100004 L125.1,297.500004 L125.1,287.900004 L123.9,286.700004 Z" id="electrode37"></path>
          <path d="M211.7,286.800004 L192.5,286.800004 L191.3,288.000004 L191.3,297.600004 L191.3,307.300004 L192.5,308.500004 L211.7,308.500004 L213,307.300004 L213,297.600004 L213,288.000004 L211.7,286.800004 Z" id="electrode38"></path>
          <path d="M235.2,264.700004 L235.2,286.400004 L256.7,286.400004 L256.7,264.700004 L235.2,264.700004 Z" id="electrode39"></path>
          <path d="M213.5,264.700004 L213.5,286.400004 L234.9,286.400004 L234.9,264.700004 L213.5,264.700004 Z" id="electrode40"></path>
          <path d="M366.8,330.300004 L366.8,324.800004 L345.3,324.800004 L345.3,471.300004 L359,485.200004 L396.8,485.200004 L410.5,471.300004 L410.5,324.800004 L389,324.800004 L389,330.300004 L389,352.300004 L366.8,352.300004 L366.8,352.000004 L366.8,330.300004 Z" id="electrode41"></path>
          <path d="M367.1,352.000004 L388.7,352.000004 L388.7,330.300004 L388.7,308.600004 L367.1,308.600004 L367.1,330.300004 L367.1,352.000004 Z" id="electrode42"></path>
          <path d="M81.14,248.100004 L70.3,248.100004 L70.3,286.500004 L80.9,286.500004 L80.9,264.700004 L81.14,264.400004 L81.14,248.100004 Z" id="electrode43"></path>
          <path d="M411.2,286.500004 L421.8,286.500004 L421.8,248.100004 L411,248.100004 L411,264.400004 L411.2,264.700004 L411.2,286.500004 Z" id="electrode44"></path>
          <path d="M410.7,220.800004 L389,220.800004 L389,242.400004 L410.7,242.400004 L410.7,220.800004 Z" id="electrode45"></path>
          <path d="M367.3,198.800004 L367.3,220.500004 L388.5,220.500004 L388.5,198.800004 L367.3,198.800004 Z" id="electrode46"></path>
          <path d="M169.3,242.400004 L191,242.400004 L191,220.800004 L169.3,220.800004 L169.3,242.400004 Z" id="electrode47"></path>
          <path d="M191.3,242.400004 L213,242.400004 L213,220.800004 L191.3,220.800004 L191.3,242.400004 Z" id="electrode48"></path>
          <path d="M168.8,198.600004 L147.6,198.600004 L147.6,220.500004 L168.8,220.500004 L168.8,198.600004 Z" id="electrode49"></path>
          <path d="M147.3,242.400004 L169,242.400004 L169,220.800004 L147.3,220.800004 L147.3,242.400004 Z" id="electrode50"></path>
          <path d="M169.6,198.800004 L169.6,220.500004 L190.8,220.500004 L190.8,198.800004 L169.6,198.800004 Z" id="electrode51"></path>
          <path d="M146.8,198.600004 L125.6,198.600004 L125.6,220.500004 L146.8,220.500004 L146.8,198.600004 Z" id="electrode52"></path>
          <path d="M103.4,242.400004 L125.1,242.400004 L125.1,220.800004 L103.4,220.800004 L103.4,242.400004 Z" id="electrode53"></path>
          <path d="M125.4,242.400004 L147.1,242.400004 L147.1,220.800004 L125.4,220.800004 L125.4,242.400004 Z" id="electrode54"></path>
          <path d="M257.5,286.500004 L278.6,286.500004 L278.6,264.700004 L257.5,264.700004 L257.5,286.500004 Z" id="electrode55"></path>
          <path d="M300.9,242.700004 L279.2,242.700004 L279.2,264.400004 L300.9,264.400004 L300.9,242.700004 Z" id="electrode56"></path>
          <path d="M70.01,237.000004 L70.01,198.600004 L65.13,193.800004 L65.13,90.5300037 L51.44,76.6600037 L13.69,76.6600037 L0,76.6600037 L0,237.000004 L70.01,237.000004 Z" id="electrode57"></path>
          <path d="M492.1,237.000004 L492.1,76.6600037 L478.5,76.6600037 L440.7,76.6600037 L427,90.5300037 L427,193.800004 L422.1,198.600004 L422.1,237.000004 L492.1,237.000004 Z" id="electrode58"></path>
          <path d="M388.7,242.700004 L367.1,242.700004 L367.1,264.400004 L388.7,264.400004 L388.7,242.700004 Z" id="electrode59"></path>
          <path d="M345.3,286.500004 L366.5,286.500004 L366.5,264.700004 L345.3,264.700004 L345.3,286.500004 Z" id="electrode60"></path>
          <path d="M389.3,286.500004 L410.5,286.500004 L410.5,264.700004 L389.3,264.700004 L389.3,286.500004 Z" id="electrode61"></path>
          <path d="M366.8,242.700004 L345.1,242.700004 L345.1,264.400004 L366.8,264.400004 L366.8,242.700004 Z" id="electrode62"></path>
          <path d="M388.5,286.400004 L388.5,264.700004 L367.3,264.700004 L367.3,286.400004 L388.5,286.400004 Z" id="electrode63"></path>
          <path d="M410.7,242.700004 L389,242.700004 L389,264.400004 L410.7,264.400004 L410.7,242.700004 Z" id="electrode64"></path>
          <path d="M191.3,264.400004 L213,264.400004 L213,242.700004 L191.3,242.700004 L191.3,264.400004 Z" id="electrode65"></path>
          <path d="M169.3,264.400004 L191,264.400004 L191,242.700004 L169.3,242.700004 L169.3,264.400004 Z" id="electrode66"></path>
          <path d="M147.3,264.400004 L169,264.400004 L169,242.700004 L147.3,242.700004 L147.3,264.400004 Z" id="electrode67"></path>
          <path d="M168.8,264.700004 L147.6,264.700004 L147.6,286.500004 L168.8,286.500004 L168.8,264.700004 Z" id="electrode68"></path>
          <path d="M257.5,220.500004 L278.6,220.500004 L278.6,198.600004 L257.5,198.600004 L257.5,220.500004 Z" id="electrode69"></path>
          <path d="M278.9,220.800004 L257.2,220.800004 L257.2,242.400004 L278.9,242.400004 L278.9,220.800004 Z" id="electrode70"></path>
          <path d="M256.9,220.800004 L235.2,220.800004 L235.2,242.400004 L256.9,242.400004 L256.9,220.800004 Z" id="electrode71"></path>
          <path d="M234.9,220.800004 L213.3,220.800004 L213.3,242.400004 L234.9,242.400004 L234.9,220.800004 Z" id="electrode72"></path>
          <path d="M422.1,248.100004 L422.1,286.500004 L427,291.400004 L427,394.600004 L440.7,408.500004 L478.5,408.500004 L492.1,408.500004 L492.1,248.100004 L422.1,248.100004 Z" id="electrode73"></path>
          <path d="M0,248.100004 L0,408.500004 L13.69,408.500004 L51.44,408.500004 L65.13,394.600004 L65.13,291.400004 L70.01,286.500004 L70.01,248.100004 L0,248.100004 Z" id="electrode74"></path>
          <path d="M103.4,352.000004 L125.1,352.000004 L125.1,330.300004 L125.1,308.600004 L103.4,308.600004 L103.4,330.300004 L103.4,352.000004 Z" id="electrode75"></path>
          <path d="M103.1,330.300004 L103.1,324.800004 L81.68,324.800004 L81.68,471.300004 L95.37,485.200004 L133.1,485.200004 L146.8,471.300004 L146.8,324.800004 L125.4,324.800004 L125.4,330.300004 L125.4,352.300004 L103.1,352.300004 L103.1,352.000004 L103.1,330.300004 Z" id="electrode76"></path>
          <path d="M191.3,352.000004 L213,352.000004 L213,330.300004 L213,308.600004 L191.3,308.600004 L191.3,330.300004 L191.3,352.000004 Z" id="electrode77"></path>
          <path d="M191,330.300004 L191,324.800004 L169.6,324.800004 L169.6,471.300004 L183.3,485.200004 L221,485.200004 L234.7,471.300004 L234.7,324.800004 L213.3,324.800004 L213.3,330.300004 L213.3,352.300004 L191,352.300004 L191,352.000004 L191,330.300004 Z" id="electrode78"></path>
          <path d="M234.9,242.700004 L213.3,242.700004 L213.3,264.400004 L234.9,264.400004 L234.9,242.700004 Z" id="electrode79"></path>
          <path d="M322.8,242.700004 L301.1,242.700004 L301.1,264.400004 L322.8,264.400004 L322.8,242.700004 Z" id="electrode80"></path>
          <path d="M322.6,286.400004 L322.6,264.700004 L301.4,264.700004 L301.4,286.400004 L322.6,286.400004 Z" id="electrode81"></path>
          <path d="M256.7,220.500004 L256.7,198.800004 L235.2,198.800004 L235.2,220.500004 L256.7,220.500004 Z" id="electrode82"></path>
          <path d="M234.9,220.500004 L234.9,198.800004 L213.5,198.800004 L213.5,220.500004 L234.9,220.500004 Z" id="electrode83"></path>
          <path d="M212.7,198.600004 L191.5,198.600004 L191.5,220.500004 L212.7,220.500004 L212.7,198.600004 Z" id="electrode84"></path>
          <path d="M280.4,198.300004 L299.6,198.300004 L300.9,197.100004 L300.9,187.500004 L300.9,177.900004 L299.6,176.700004 L280.4,176.700004 L279.2,177.900004 L279.2,187.500004 L279.2,197.100004 L280.4,198.300004 Z" id="electrode85"></path>
          <path d="M368.3,198.500004 L387.5,198.500004 L388.7,197.300004 L388.7,187.600004 L388.7,178.000004 L387.5,176.800004 L368.3,176.800004 L367.1,178.000004 L367.1,187.600004 L367.1,197.300004 L368.3,198.500004 Z" id="electrode86"></path>
          <path d="M103.7,198.800004 L103.7,220.500004 L124.8,220.500004 L124.8,198.800004 L103.7,198.800004 Z" id="electrode87"></path>
          <path d="M81.44,242.400004 L103.1,242.400004 L103.1,220.800004 L81.44,220.800004 L81.44,242.400004 Z" id="electrode88"></path>
          <path d="M102.9,198.600004 L81.68,198.600004 L81.68,220.500004 L102.9,220.500004 L102.9,198.600004 Z" id="electrode89"></path>
          <path d="M125.1,178.000004 L123.9,176.800004 L104.6,176.800004 L103.4,178.000004 L103.4,187.600004 L103.4,197.300004 L104.6,198.500004 L123.9,198.500004 L125.1,197.300004 L125.1,187.600004 L125.1,178.000004 Z" id="electrode90"></path>
          <path d="M213,177.900004 L211.7,176.700004 L192.5,176.700004 L191.3,177.900004 L191.3,187.500004 L191.3,197.100004 L192.5,198.300004 L211.7,198.300004 L213,197.100004 L213,187.500004 L213,177.900004 Z" id="electrode91"></path>
      </g>
</svg>
