<svg xmlns:dc="http://purl.org/dc/elements/1.1/" xmlns:cc="http://creativecommons.org/ns#" xmlns:rdf="http://www.w3.org/1999/02/22-rdf-syntax-ns#" xmlns:svg="http://www.w3.org/2000/svg" xmlns="http://www.w3.org/2000/svg" xmlns:sodipodi="http://sodipodi.sourceforge.net/DTD/sodipodi-0.dtd" xmlns:inkscape="http://www.inkscape.org/namespaces/inkscape" height="72.78" version="1.2" width="38.026" id="svg2" inkscape:version="0.91 r13725" sodipodi:docname="device.svg">
  <metadata id="metadata389">
    <rdf:RDF>
      <cc:Work rdf:about="">
        <dc:format>image/svg+xml</dc:format>
        <dc:type rdf:resource="http://purl.org/dc/dcmitype/StillImage"/>
      </cc:Work>
    </rdf:RDF>
  </metadata>
  <sodipodi:namedview pagecolor="#ffffff" bordercolor="#666666" borderopacity="1" objecttolerance="10" gridtolerance="10" guidetolerance="10" inkscape:pageopacity="0" inkscape:pageshadow="2" inkscape:window-width="752" inkscape:window-height="792" id="namedview387" showgrid="false" inkscape:zoom="18.343194" inkscape:cx="14.504668" inkscape:cy="51.29706" inkscape:window-x="775" inkscape:window-y="0" inkscape:window-maximized="0" inkscape:current-layer="layer1"/>
  <defs id="defs4"/>
  <g id="layer1" inkscape:groupmode="layer" inkscape:label="Device" style="display:inline">
    <path d="M 23.762998,55.399999 L 22.703,55.399999 L 22.703,54.999997 L 21.772999,54.999997 L 21.772999,55.389997 L 21.772999,56.449999 L 21.372999,56.449999 L 21.372999,57.38 L 21.762999,57.38 L 22.823001,57.38 L 22.823001,57.779999 L 23.752999,57.779999 L 23.752999,57.389999 L 23.752999,56.329998 L 24.152998,56.329998 L 24.152998,55.399999 z" data-channels="104" id="electrode005" style="fill:#0000ff" inkscape:connector-curvature="0"/>
    <path d="M 21.263,60.399998 L 20.202999,60.399998 L 20.202999,59.999999 L 19.272998,59.999999 L 19.272998,60.389999 L 19.272998,61.45 L 18.872999,61.45 L 18.872999,62.379998 L 19.262999,62.379998 L 20.323,62.379998 L 20.323,62.779997 L 21.252998,62.779997 L 21.252998,62.389997 L 21.252998,61.329999 L 21.653,61.329999 L 21.653,60.399998 z" data-channels="114" id="electrode012" style="fill:#0000ff" inkscape:connector-curvature="0"/>
    <path d="M 21.263,57.899997 L 20.202999,57.899997 L 20.202999,57.499998 L 19.272998,57.499998 L 19.272998,57.889998 L 19.272998,58.949999 L 18.872999,58.949999 L 18.872999,59.879998 L 19.262999,59.879998 L 20.323,59.879998 L 20.323,60.28 L 21.252998,60.28 L 21.252998,59.89 L 21.252998,58.829998 L 21.653,58.829998 L 21.653,57.899997 Z" data-channels="110" id="electrode010" style="fill:#0000ff" inkscape:connector-curvature="0"/>
    <path d="M 21.263,62.899998 L 20.202999,62.899998 L 20.202999,62.499999 L 19.272998,62.499999 L 19.272998,62.889999 L 19.272998,63.949998 L 18.872999,63.949998 L 18.872999,64.879999 L 19.262999,64.879999 L 20.323,64.879999 L 20.323,65.279998 L 21.252998,65.279998 L 21.252998,64.889998 L 21.252998,63.83 L 21.653,63.83 L 21.653,62.899998 Z" data-channels="113" id="electrode014" style="fill:#0000ff" inkscape:connector-curvature="0"/>
    <path d="M 23.762998,60.399998 L 22.703,60.399998 L 22.703,59.999999 L 21.772999,59.999999 L 21.772999,60.389999 L 21.772999,61.45 L 21.372999,61.45 L 21.372999,62.379998 L 21.762999,62.379998 L 22.823001,62.379998 L 22.823001,62.779997 L 23.752999,62.779997 L 23.752999,62.389997 L 23.752999,61.329999 L 24.152998,61.329999 L 24.152998,60.399998 z" data-channels="115" id="electrode013" style="fill:#0000ff" inkscape:connector-curvature="0"/>
    <path d="M 13.873,32.379999 L 15.322999,32.379999 L 15.322999,32.779998 L 16.253,32.779998 L 16.253,31.33 L 16.652999,31.33 L 16.652999,29.999999 L 16.253,29.999999 L 16.253,28.829999 L 16.652999,28.829999 L 16.652999,27.899998 L 15.203001,27.899998 L 15.203001,27.499999 L 14.272999,27.499999 L 14.272999,28.95 L 13.873,28.95 L 13.873,29.879998 L 14.272999,29.879998 L 14.272999,31.449998 L 13.873,31.449998 Z" data-channels="37" id="electrode053" style="fill:#0000ff" inkscape:connector-curvature="0"/>
    <path d="M 13.873,44.879999 L 15.322999,44.879999 L 15.322999,45.279999 L 16.253,45.279999 L 16.253,43.83 L 16.652999,43.83 L 16.652999,42.5 L 16.253,42.5 L 16.253,41.329999 L 16.652999,41.329999 L 16.652999,40.399998 L 15.203001,40.399998 L 15.203001,39.999999 L 14.272999,39.999999 L 14.272999,41.449998 L 13.873,41.449998 L 13.873,42.379999 L 14.272999,42.379999 L 14.272999,43.949998 L 13.873,43.949998 z" data-channels="21" id="electrode040" style="fill:#0000ff" inkscape:connector-curvature="0"/>
    <path d="M 14.152999,56.329998 L 14.152999,54.999997 L 13.752999,54.999997 L 13.752999,54.267498 L 11.373,54.267498 L 11.373,56.329998 z" data-channels="14" id="electrode021" style="fill:#0000ff" inkscape:connector-curvature="0"/>
    <path d="M 13.873,19.879999 L 15.322999,19.879999 L 15.322999,20.279998 L 16.253,20.279998 L 16.253,18.829999 L 16.652999,18.829999 L 16.652999,17.499999 L 16.253,17.499999 L 16.253,16.329999 L 16.652999,16.329999 L 16.652999,15.399997 L 15.203001,15.399997 L 15.203001,14.999998 L 14.272999,14.999998 L 14.272999,16.45 L 13.873,16.45 L 13.873,17.379998 L 14.272999,17.379998 L 14.272999,18.949997 L 13.873,18.949997 Z" data-channels="47" id="electrode016" style="fill:#0000ff" inkscape:connector-curvature="0"/>
    <path d="M 14.152999,43.83 L 14.152999,42.5 L 13.752999,42.5 L 13.752999,41.767498 L 11.373,41.767498 L 11.373,43.83 z" data-channels="20" id="electrode063" style="fill:#0000ff" inkscape:connector-curvature="0"/>
    <path d="M 14.263,4.8799976 L 15.322999,4.8799976 L 15.322999,5.2799996 L 16.253,5.2799996 L 16.253,4.8899995 L 16.253,3.8299983 L 16.652999,3.8299983 L 16.652999,2.8999998 L 16.262999,2.8999998 L 15.203001,2.8999998 L 15.203001,2.4999978 L 14.272999,2.4999978 L 14.272999,2.8899979 L 14.272999,3.9499992 L 13.873,3.9499992 L 13.873,4.8799976 z" data-channels="57" id="electrode104" style="fill:#0000ff" inkscape:connector-curvature="0"/>
    <path d="M 16.762998,4.8799976 L 17.822999,4.8799976 L 17.822999,5.2799996 L 18.753001,5.2799996 L 18.753001,4.8899995 L 18.753001,3.8299983 L 19.153,3.8299983 L 19.153,2.8999998 L 18.763,2.8999998 L 17.702998,2.8999998 L 17.702998,2.4999978 L 16.773,2.4999978 L 16.773,2.8899979 L 16.773,3.9499992 L 16.372998,3.9499992 L 16.372998,4.8799976 z" data-channels="58" id="electrode000" style="fill:#0000ff" inkscape:connector-curvature="0"/>
    <path d="M 21.263,0.3999992 L 20.202999,0.3999992 L 20.202999,0 L 19.272998,0 L 19.272998,0.39000007 L 19.272998,1.4499985 L 18.872999,1.4499985 L 18.872999,2.3799998 L 19.262999,2.3799998 L 20.323,2.3799998 L 20.323,2.779999 L 21.252998,2.779999 L 21.252998,2.3899989 L 21.252998,1.3299976 L 21.653,1.3299976 L 21.653,0.3999992 z" data-channels="60" id="electrode105" style="fill:#0000ff" inkscape:connector-curvature="0"/>
    <path d="M 16.762998,2.3799998 L 17.822999,2.3799998 L 17.822999,2.779999 L 18.753001,2.779999 L 18.753001,2.3899989 L 18.753001,1.3299976 L 19.153,1.3299976 L 19.153,0.3999992 L 18.763,0.3999992 L 17.702998,0.3999992 L 17.702998,0 L 16.773,0 L 16.773,0.39000007 L 16.773,1.4499985 L 16.372998,1.4499985 L 16.372998,2.3799998 z" data-channels="59" id="electrode103" style="fill:#0000ff" inkscape:connector-curvature="0"/>
    <path d="M 14.263,7.3799982 L 15.322999,7.3799982 L 15.322999,7.7799974 L 16.253,7.7799974 L 16.253,7.3899974 L 16.253,6.3299989 L 16.652999,6.3299989 L 16.652999,5.3999977 L 16.262999,5.3999977 L 15.203001,5.3999977 L 15.203001,4.9999985 L 14.272999,4.9999985 L 14.272999,5.3899985 L 14.272999,6.4499998 L 13.873,6.4499998 L 13.873,7.3799982 Z" data-channels="56" id="electrode002" style="fill:#0000ff" inkscape:connector-curvature="0"/>
    <path d="M 0,8.1749985 L 0,14.605 L 11.98,14.605 L 11.98,12.499998 L 11.482999,12.499998 L 9.262999,12.499998 L 8.752998,12.499998 L 8.752998,11.329997 L 9.1530001,11.329997 L 9.1530001,10.279998 L 11.482999,10.279998 L 11.98,10.279998 L 11.98,8.1749985 z" data-channels="50" id="electrode106" style="fill:#0000ff" inkscape:connector-curvature="0"/>
    <path d="M 0,20.674999 L 0,27.104998 L 11.98,27.104998 L 11.98,24.999998 L 11.482999,24.999998 L 9.262999,24.999998 L 8.752998,24.999998 L 8.752998,23.829998 L 9.1530001,23.829998 L 9.1530001,22.779998 L 11.482999,22.779998 L 11.98,22.779998 L 11.98,20.674999 z" data-channels="40" id="electrode050" style="fill:#0000ff" inkscape:connector-curvature="0"/>
    <path d="M 23.762998,47.899997 L 22.703,47.899997 L 22.703,47.499998 L 21.772999,47.499998 L 21.772999,47.889998 L 21.772999,48.949999 L 21.372999,48.949999 L 21.372999,49.879998 L 21.762999,49.879998 L 22.823001,49.879998 L 22.823001,50.279997 L 23.752999,50.279997 L 23.752999,49.89 L 23.752999,48.829999 L 24.152998,48.829999 L 24.152998,47.899997 z" data-channels="101" id="electrode107" style="fill:#0000ff" inkscape:connector-curvature="0"/>
    <path d="M 21.263,50.399998 L 20.202999,50.399998 L 20.202999,49.999999 L 19.272998,49.999999 L 19.272998,50.389999 L 19.272998,51.449997 L 18.872999,51.449997 L 18.872999,52.379999 L 19.262999,52.379999 L 20.323,52.379999 L 20.323,52.779998 L 21.252998,52.779998 L 21.252998,52.389998 L 21.252998,51.329999 L 21.653,51.329999 L 21.653,50.399998 Z" data-channels="107" id="electrode009" style="fill:#0000ff" inkscape:connector-curvature="0"/>
    <path d="M 0,33.174999 L 0,39.604998 L 11.98,39.604998 L 11.98,37.499998 L 11.482999,37.499998 L 9.262999,37.499998 L 8.752998,37.499998 L 8.752998,36.329998 L 9.1530001,36.329998 L 9.1530001,35.279999 L 11.482999,35.279999 L 11.98,35.279999 L 11.98,33.174999 z" data-channels="24" id="electrode047" style="fill:#0000ff" inkscape:connector-curvature="0"/>
    <path d="M 21.263,52.899999 L 20.202999,52.899999 L 20.202999,52.499999 L 19.272998,52.499999 L 19.272998,52.889999 L 19.272998,53.949998 L 18.872999,53.949998 L 18.872999,54.879999 L 19.262999,54.879999 L 20.323,54.879999 L 20.323,55.279998 L 21.252998,55.279998 L 21.252998,54.889998 L 21.252998,53.83 L 21.653,53.83 L 21.653,52.899999 z" data-channels="106" id="electrode008" style="fill:#0000ff" inkscape:connector-curvature="0"/>
    <path d="M 23.762998,52.899999 L 22.703,52.899999 L 22.703,52.499999 L 21.772999,52.499999 L 21.772999,52.889999 L 21.772999,53.949998 L 21.372999,53.949998 L 21.372999,54.879999 L 21.762999,54.879999 L 22.823001,54.879999 L 22.823001,55.279998 L 23.752999,55.279998 L 23.752999,54.889998 L 23.752999,53.83 L 24.152998,53.83 L 24.152998,52.899999 z" data-channels="105" id="electrode007" style="fill:#0000ff" inkscape:connector-curvature="0"/>
    <path d="M 21.263,55.399999 L 20.202999,55.399999 L 20.202999,54.999997 L 19.272998,54.999997 L 19.272998,55.389997 L 19.272998,56.449999 L 18.872999,56.449999 L 18.872999,57.38 L 19.262999,57.38 L 20.323,57.38 L 20.323,57.779999 L 21.252998,57.779999 L 21.252998,57.389999 L 21.252998,56.329998 L 21.653,56.329998 L 21.653,55.399999 z" data-channels="111" id="electrode006" style="fill:#0000ff" inkscape:connector-curvature="0"/>
    <path d="M 14.263,69.879997 L 15.322999,69.879997 L 15.322999,70.279999 L 16.253,70.279999 L 16.253,69.889999 L 16.253,68.829998 L 16.652999,68.829998 L 16.652999,67.9 L 16.262999,67.9 L 15.203001,67.9 L 15.203001,67.499998 L 14.272999,67.499998 L 14.272999,67.889998 L 14.272999,68.949999 L 13.873,68.949999 L 13.873,69.879997 z" data-channels="1" id="electrode071" style="fill:#0000ff" inkscape:connector-curvature="0"/>
    <path d="M 16.762998,72.379998 L 17.822999,72.379998 L 17.822999,72.779997 L 18.753001,72.779997 L 18.753001,72.389997 L 18.753001,71.329999 L 19.153,71.329999 L 19.153,70.399997 L 18.763,70.399997 L 17.702998,70.399997 L 17.702998,69.999998 L 16.773,69.999998 L 16.773,70.389998 L 16.773,71.45 L 16.372998,71.45 L 16.372998,72.379998 z" data-channels="3" id="electrode072" style="fill:#0000ff" inkscape:connector-curvature="0"/>
    <path d="M 16.762998,69.879997 L 17.822999,69.879997 L 17.822999,70.279999 L 18.753001,70.279999 L 18.753001,69.889999 L 18.753001,68.829998 L 19.153,68.829998 L 19.153,67.9 L 18.763,67.9 L 17.702998,67.9 L 17.702998,67.499998 L 16.773,67.499998 L 16.773,67.889998 L 16.773,68.949999 L 16.372998,68.949999 L 16.372998,69.879997 z" data-channels="2" id="electrode066" style="fill:#0000ff" inkscape:connector-curvature="0"/>
    <path d="M 0,45.675 L 0,52.104998 L 11.98,52.104998 L 11.98,49.999999 L 11.482999,49.999999 L 9.262999,49.999999 L 8.752998,49.999999 L 8.752998,48.829999 L 9.1530001,48.829999 L 9.1530001,47.779999 L 11.482999,47.779999 L 11.98,47.779999 L 11.98,45.675 z" data-channels="16" id="electrode055" style="fill:#0000ff" inkscape:connector-curvature="0"/>
    <path d="M 16.762998,67.38 L 17.822999,67.38 L 17.822999,67.779999 L 18.753001,67.779999 L 18.753001,67.389999 L 18.753001,66.329997 L 19.153,66.329997 L 19.153,65.399999 L 18.763,65.399999 L 17.702998,65.399999 L 17.702998,65 L 16.773,65 L 16.773,65.39 L 16.773,66.449998 L 16.372998,66.449998 L 16.372998,67.38 z" data-channels="7" id="electrode049" style="fill:#0000ff" inkscape:connector-curvature="0"/>
    <path d="M 13.873,57.38 L 15.322999,57.38 L 15.322999,57.779999 L 16.253,57.779999 L 16.253,56.329998 L 16.652999,56.329998 L 16.652999,54.999997 L 16.253,54.999997 L 16.253,53.83 L 16.652999,53.83 L 16.652999,52.899999 L 15.203001,52.899999 L 15.203001,52.499999 L 14.272999,52.499999 L 14.272999,53.949998 L 13.873,53.949998 L 13.873,54.879999 L 14.272999,54.879999 L 14.272999,56.449999 L 13.873,56.449999 z" data-channels="15" id="electrode023" style="fill:#0000ff" inkscape:connector-curvature="0"/>
    <path d="M 16.762998,12.38 L 17.822999,12.38 L 17.822999,12.779999 L 18.753001,12.779999 L 18.753001,12.389999 L 18.753001,11.329997 L 19.153,11.329997 L 19.153,10.399999 L 18.763,10.399999 L 17.702998,10.399999 L 17.702998,9.9999998 L 16.773,9.9999998 L 16.773,10.39 L 16.773,11.449998 L 16.372998,11.449998 L 16.372998,12.38 z" data-channels="53" id="electrode011" style="fill:#0000ff" inkscape:connector-curvature="0"/>
    <path d="M 14.263,12.38 L 15.322999,12.38 L 15.322999,12.779999 L 16.253,12.779999 L 16.253,12.389999 L 16.253,11.329997 L 16.652999,11.329997 L 16.652999,10.399999 L 16.262999,10.399999 L 15.203001,10.399999 L 15.203001,9.9999998 L 14.272999,9.9999998 L 14.272999,10.39 L 14.272999,11.449998 L 13.873,11.449998 L 13.873,12.38 Z" data-channels="52" id="electrode003" style="fill:#0000ff" inkscape:connector-curvature="0"/>
    <path d="M 16.762998,9.8799989 L 17.822999,9.8799989 L 17.822999,10.279998 L 18.753001,10.279998 L 18.753001,9.889998 L 18.753001,8.8299996 L 19.153,8.8299996 L 19.153,7.8999983 L 18.763,7.8999983 L 17.702998,7.8999983 L 17.702998,7.4999991 L 16.773,7.4999991 L 16.773,7.8899992 L 16.773,8.9499976 L 16.372998,8.9499976 L 16.372998,9.8799989 z" data-channels="54" id="electrode004" style="fill:#0000ff" inkscape:connector-curvature="0"/>
    <path d="M 16.762998,7.3799982 L 17.822999,7.3799982 L 17.822999,7.7799974 L 18.753001,7.7799974 L 18.753001,7.3899974 L 18.753001,6.3299989 L 19.153,6.3299989 L 19.153,5.3999977 L 18.763,5.3999977 L 17.702998,5.3999977 L 17.702998,4.9999985 L 16.773,4.9999985 L 16.773,5.3899985 L 16.773,6.4499998 L 16.372998,6.4499998 L 16.372998,7.3799982 z" data-channels="55" id="electrode001" style="fill:#0000ff" inkscape:connector-curvature="0"/>
    <path d="M 16.762998,14.88 L 17.822999,14.88 L 17.822999,15.279999 L 18.753001,15.279999 L 18.753001,14.889999 L 18.753001,13.829998 L 19.153,13.829998 L 19.153,12.9 L 18.763,12.9 L 17.702998,12.9 L 17.702998,12.499998 L 16.773,12.499998 L 16.773,12.889998 L 16.773,13.949999 L 16.372998,13.949999 L 16.372998,14.88 z" data-channels="49" id="electrode019" style="fill:#0000ff" inkscape:connector-curvature="0"/>
    <path d="M 14.263,67.38 L 15.322999,67.38 L 15.322999,67.779999 L 16.253,67.779999 L 16.253,67.389999 L 16.253,66.329997 L 16.652999,66.329997 L 16.652999,65.399999 L 16.262999,65.399999 L 15.203001,65.399999 L 15.203001,65 L 14.272999,65 L 14.272999,65.39 L 14.272999,66.449998 L 13.873,66.449998 L 13.873,67.38 z" data-channels="0" id="electrode070" style="fill:#0000ff" inkscape:connector-curvature="0"/>
    <path d="M 21.263,45.4 L 20.202999,45.4 L 20.202999,44.999997 L 19.272998,44.999997 L 19.272998,45.389998 L 19.272998,46.449999 L 18.872999,46.449999 L 18.872999,47.379997 L 19.262999,47.379997 L 20.323,47.379997 L 20.323,47.779999 L 21.252998,47.779999 L 21.252998,47.389999 L 21.252998,46.329998 L 21.653,46.329998 L 21.653,45.4 z" data-channels="96" id="electrode111" style="fill:#0000ff" inkscape:connector-curvature="0"/>
    <path d="M 21.263,47.899997 L 20.202999,47.899997 L 20.202999,47.499998 L 19.272998,47.499998 L 19.272998,47.889998 L 19.272998,48.949999 L 18.872999,48.949999 L 18.872999,49.879998 L 19.262999,49.879998 L 20.323,49.879998 L 20.323,50.279997 L 21.252998,50.279997 L 21.252998,49.89 L 21.252998,48.829999 L 21.653,48.829999 L 21.653,47.899997 z" data-channels="100" id="electrode110" style="fill:#0000ff" inkscape:connector-curvature="0"/>
    <path d="M 21.263,42.899999 L 20.202999,42.899999 L 20.202999,42.5 L 19.272998,42.5 L 19.272998,42.89 L 19.272998,43.949998 L 18.872999,43.949998 L 18.872999,44.879999 L 19.262999,44.879999 L 20.323,44.879999 L 20.323,45.279999 L 21.252998,45.279999 L 21.252998,44.889999 L 21.252998,43.83 L 21.653,43.83 L 21.653,42.899999 z" data-channels="97" id="electrode109" style="fill:#0000ff" inkscape:connector-curvature="0"/>
    <path d="M 23.762998,42.899999 L 22.703,42.899999 L 22.703,42.5 L 21.772999,42.5 L 21.772999,42.89 L 21.772999,43.949998 L 21.372999,43.949998 L 21.372999,44.879999 L 21.762999,44.879999 L 22.823001,44.879999 L 22.823001,45.279999 L 23.752999,45.279999 L 23.752999,44.889999 L 23.752999,43.83 L 24.152998,43.83 L 24.152998,42.899999 z" data-channels="98" id="electrode108" style="fill:#0000ff" inkscape:connector-curvature="0"/>
    <path d="M 16.762998,59.879998 L 17.822999,59.879998 L 17.822999,60.28 L 18.753001,60.28 L 18.753001,59.89 L 18.753001,58.829998 L 19.153,58.829998 L 19.153,57.899997 L 18.763,57.899997 L 17.702998,57.899997 L 17.702998,57.499998 L 16.773,57.499998 L 16.773,57.889998 L 16.773,58.949999 L 16.372998,58.949999 L 16.372998,59.879998 z" data-channels="9" id="electrode025" style="fill:#0000ff" inkscape:connector-curvature="0"/>
    <path d="M 14.263,62.379998 L 15.322999,62.379998 L 15.322999,62.779997 L 16.253,62.779997 L 16.253,62.389997 L 16.253,61.329999 L 16.652999,61.329999 L 16.652999,60.399998 L 16.262999,60.399998 L 15.203001,60.399998 L 15.203001,59.999999 L 14.272999,59.999999 L 14.272999,60.389999 L 14.272999,61.45 L 13.873,61.45 L 13.873,62.379998 z" data-channels="4" id="electrode026" style="fill:#0000ff" inkscape:connector-curvature="0"/>
    <path d="M 23.762998,40.399998 L 22.703,40.399998 L 22.703,39.999999 L 21.772999,39.999999 L 21.772999,40.389999 L 21.772999,41.449998 L 21.372999,41.449998 L 21.372999,42.379999 L 21.762999,42.379999 L 22.823001,42.379999 L 22.823001,42.779998 L 23.752999,42.779998 L 23.752999,42.389998 L 23.752999,41.329999 L 24.152998,41.329999 L 24.152998,40.399998 z" data-channels="99" id="electrode093" style="fill:#0000ff" inkscape:connector-curvature="0"/>
    <path d="M 16.762998,62.379998 L 17.822999,62.379998 L 17.822999,62.779997 L 18.753001,62.779997 L 18.753001,62.389997 L 18.753001,61.329999 L 19.153,61.329999 L 19.153,60.399998 L 18.763,60.399998 L 17.702998,60.399998 L 17.702998,59.999999 L 16.773,59.999999 L 16.773,60.389999 L 16.773,61.45 L 16.372998,61.45 L 16.372998,62.379998 z" data-channels="5" id="electrode068" style="fill:#0000ff" inkscape:connector-curvature="0"/>
    <path d="M 16.762998,64.879999 L 17.822999,64.879999 L 17.822999,65.279998 L 18.753001,65.279998 L 18.753001,64.889998 L 18.753001,63.83 L 19.153,63.83 L 19.153,62.899998 L 18.763,62.899998 L 17.702998,62.899998 L 17.702998,62.499999 L 16.773,62.499999 L 16.773,62.889999 L 16.773,63.949998 L 16.372998,63.949998 L 16.372998,64.879999 z" data-channels="6" id="electrode069" style="fill:#0000ff" inkscape:connector-curvature="0"/>
    <path d="M 38.025999,14.605 L 38.025999,8.1749985 L 26.045998,8.1749985 L 26.045998,10.279998 L 26.543,10.279998 L 28.763,10.279998 L 29.273,10.279998 L 29.273,11.449998 L 28.872998,11.449998 L 28.872998,12.499998 L 26.543,12.499998 L 26.045998,12.499998 L 26.045998,14.605 z" data-channels="69" id="electrode090" style="fill:#0000ff" inkscape:connector-curvature="0"/>
    <path d="M 38.025999,64.604999 L 38.025999,58.174997 L 26.045998,58.174997 L 26.045998,60.28 L 26.543,60.28 L 28.763,60.28 L 29.273,60.28 L 29.273,61.45 L 28.872998,61.45 L 28.872998,62.499999 L 26.543,62.499999 L 26.045998,62.499999 L 26.045998,64.604999 z" data-channels="109" id="electrode060" style="fill:#0000ff" inkscape:connector-curvature="0"/>
    <path d="M 38.025999,52.104998 L 38.025999,45.675 L 26.045998,45.675 L 26.045998,47.779999 L 26.543,47.779999 L 28.763,47.779999 L 29.273,47.779999 L 29.273,48.949999 L 28.872998,48.949999 L 28.872998,49.999999 L 26.543,49.999999 L 26.045998,49.999999 L 26.045998,52.104998 z" data-channels="103" id="electrode076" style="fill:#0000ff" inkscape:connector-curvature="0"/>
    <path d="M 38.025999,39.604998 L 38.025999,33.174999 L 26.045998,33.174999 L 26.045998,35.279999 L 26.543,35.279999 L 28.763,35.279999 L 29.273,35.279999 L 29.273,36.449999 L 28.872998,36.449999 L 28.872998,37.499998 L 26.543,37.499998 L 26.045998,37.499998 L 26.045998,39.604998 z" data-channels="95" id="electrode074" style="fill:#0000ff" inkscape:connector-curvature="0"/>
    <path d="M 38.025999,27.104998 L 38.025999,20.674999 L 26.045998,20.674999 L 26.045998,22.779998 L 26.543,22.779998 L 28.763,22.779998 L 29.273,22.779998 L 29.273,23.949999 L 28.872998,23.949999 L 28.872998,24.999998 L 26.543,24.999998 L 26.045998,24.999998 L 26.045998,27.104998 z" data-channels="79" id="electrode073" style="fill:#0000ff" inkscape:connector-curvature="0"/>
    <path d="M 23.762998,35.4 L 22.703,35.4 L 22.703,34.999998 L 21.772999,34.999998 L 21.772999,35.389998 L 21.772999,36.449999 L 21.372999,36.449999 L 21.372999,37.379997 L 21.762999,37.379997 L 22.823001,37.379997 L 22.823001,37.78 L 23.752999,37.78 L 23.752999,37.389999 L 23.752999,36.329998 L 24.152998,36.329998 L 24.152998,35.4 z" data-channels="86" id="electrode098" style="fill:#0000ff" inkscape:connector-curvature="0"/>
    <path d="M 21.263,35.4 L 20.202999,35.4 L 20.202999,34.999998 L 19.272998,34.999998 L 19.272998,35.389998 L 19.272998,36.449999 L 18.872999,36.449999 L 18.872999,37.379997 L 19.262999,37.379997 L 20.323,37.379997 L 20.323,37.78 L 21.252998,37.78 L 21.252998,37.389999 L 21.252998,36.329998 L 21.653,36.329998 L 21.653,35.4 z" data-channels="94" id="electrode097" style="fill:#0000ff" inkscape:connector-curvature="0"/>
    <path d="M 21.263,40.399998 L 20.202999,40.399998 L 20.202999,39.999999 L 19.272998,39.999999 L 19.272998,40.389999 L 19.272998,41.449998 L 18.872999,41.449998 L 18.872999,42.379999 L 19.262999,42.379999 L 20.323,42.379999 L 20.323,42.779998 L 21.252998,42.779998 L 21.252998,42.389998 L 21.252998,41.329999 L 21.653,41.329999 L 21.653,40.399998 z" data-channels="92" id="electrode101" style="fill:#0000ff" inkscape:connector-curvature="0"/>
    <path d="M 16.762998,57.38 L 17.822999,57.38 L 17.822999,57.779999 L 18.753001,57.779999 L 18.753001,57.389999 L 18.753001,56.329998 L 19.153,56.329998 L 19.153,55.399999 L 18.763,55.399999 L 17.702998,55.399999 L 17.702998,54.999997 L 16.773,54.999997 L 16.773,55.389997 L 16.773,56.449999 L 16.372998,56.449999 L 16.372998,57.38 z" data-channels="8" id="electrode024" style="fill:#0000ff" inkscape:connector-curvature="0"/>
    <path d="M 21.263,37.899998 L 20.202999,37.899998 L 20.202999,37.499998 L 19.272998,37.499998 L 19.272998,37.889998 L 19.272998,38.95 L 18.872999,38.95 L 18.872999,39.879998 L 19.262999,39.879998 L 20.323,39.879998 L 20.323,40.28 L 21.252998,40.28 L 21.252998,39.889997 L 21.252998,38.829999 L 21.653,38.829999 L 21.653,37.899998 z" data-channels="93" id="electrode099" style="fill:#0000ff" inkscape:connector-curvature="0"/>
    <path d="M 16.762998,52.379999 L 17.822999,52.379999 L 17.822999,52.779998 L 18.753001,52.779998 L 18.753001,52.389998 L 18.753001,51.329999 L 19.153,51.329999 L 19.153,50.399998 L 18.763,50.399998 L 17.702998,50.399998 L 17.702998,49.999999 L 16.773,49.999999 L 16.773,50.389999 L 16.773,51.449997 L 16.372998,51.449997 L 16.372998,52.379999 z" data-channels="12" id="electrode020" style="fill:#0000ff" inkscape:connector-curvature="0"/>
    <path d="M 16.762998,54.879999 L 17.822999,54.879999 L 17.822999,55.279998 L 18.753001,55.279998 L 18.753001,54.889998 L 18.753001,53.83 L 19.153,53.83 L 19.153,52.899999 L 18.763,52.899999 L 17.702998,52.899999 L 17.702998,52.499999 L 16.773,52.499999 L 16.773,52.889999 L 16.773,53.949998 L 16.372998,53.949998 L 16.372998,54.879999 z" data-channels="13" id="electrode022" style="fill:#0000ff" inkscape:connector-curvature="0"/>
    <path d="M 21.263,32.899999 L 20.202999,32.899999 L 20.202999,32.5 L 19.272998,32.5 L 19.272998,32.89 L 19.272998,33.949998 L 18.872999,33.949998 L 18.872999,34.88 L 19.262999,34.88 L 20.323,34.88 L 20.323,35.279999 L 21.252998,35.279999 L 21.252998,34.889999 L 21.252998,33.829998 L 21.653,33.829998 L 21.653,32.899999 z" data-channels="85" id="electrode045" style="fill:#0000ff" inkscape:connector-curvature="0"/>
    <path d="M 14.263,49.879998 L 15.322999,49.879998 L 15.322999,50.279997 L 16.253,50.279997 L 16.253,49.89 L 16.253,48.829999 L 16.652999,48.829999 L 16.652999,47.899997 L 16.262999,47.899997 L 15.203001,47.899997 L 15.203001,47.499998 L 14.272999,47.499998 L 14.272999,47.889998 L 14.272999,48.949999 L 13.873,48.949999 L 13.873,49.879998 z" data-channels="18" id="electrode037" style="fill:#0000ff" inkscape:connector-curvature="0"/>
    <path d="M 16.762998,49.879998 L 17.822999,49.879998 L 17.822999,50.279997 L 18.753001,50.279997 L 18.753001,49.89 L 18.753001,48.829999 L 19.153,48.829999 L 19.153,47.899997 L 18.763,47.899997 L 17.702998,47.899997 L 17.702998,47.499998 L 16.773,47.499998 L 16.773,47.889998 L 16.773,48.949999 L 16.372998,48.949999 L 16.372998,49.879998 z" data-channels="19" id="electrode036" style="fill:#0000ff" inkscape:connector-curvature="0"/>
    <path d="M 21.263,27.899998 L 20.202999,27.899998 L 20.202999,27.499999 L 19.272998,27.499999 L 19.272998,27.889999 L 19.272998,28.95 L 18.872999,28.95 L 18.872999,29.879998 L 19.262999,29.879998 L 20.323,29.879998 L 20.323,30.279998 L 21.252998,30.279998 L 21.252998,29.889998 L 21.252998,28.829999 L 21.653,28.829999 L 21.653,27.899998 z" data-channels="81" id="electrode044" style="fill:#0000ff" inkscape:connector-curvature="0"/>
    <path d="M 28.753,62.379998 L 28.753,61.329999 L 29.153,61.329999 L 29.153,60.399998 L 24.272999,60.399998 L 24.272999,61.45 L 23.873,61.45 L 23.873,62.379998 L 26.035999,62.379998 z" data-channels="108" id="electrode057" style="fill:#0000ff" inkscape:connector-curvature="0"/>
    <path d="M 16.762998,47.379997 L 17.822999,47.379997 L 17.822999,47.779999 L 18.753001,47.779999 L 18.753001,47.389999 L 18.753001,46.329998 L 19.153,46.329998 L 19.153,45.4 L 18.763,45.4 L 17.702998,45.4 L 17.702998,44.999997 L 16.773,44.999997 L 16.773,45.389998 L 16.773,46.449999 L 16.372998,46.449999 L 16.372998,47.379997 z" data-channels="23" id="electrode038" style="fill:#0000ff" inkscape:connector-curvature="0"/>
    <path d="M 16.762998,44.879999 L 17.822999,44.879999 L 17.822999,45.279999 L 18.753001,45.279999 L 18.753001,44.889999 L 18.753001,43.83 L 19.153,43.83 L 19.153,42.899999 L 18.763,42.899999 L 17.702998,42.899999 L 17.702998,42.5 L 16.773,42.5 L 16.773,42.89 L 16.773,43.949998 L 16.372998,43.949998 L 16.372998,44.879999 z" data-channels="22" id="electrode039" style="fill:#0000ff" inkscape:connector-curvature="0"/>
    <path d="M 16.762998,42.379999 L 17.822999,42.379999 L 17.822999,42.779998 L 18.753001,42.779998 L 18.753001,42.389998 L 18.753001,41.329999 L 19.153,41.329999 L 19.153,40.399998 L 18.763,40.399998 L 17.702998,40.399998 L 17.702998,39.999999 L 16.773,39.999999 L 16.773,40.389999 L 16.773,41.449998 L 16.372998,41.449998 L 16.372998,42.379999 z" data-channels="27" id="electrode062" style="fill:#0000ff" inkscape:connector-curvature="0"/>
    <path d="M 16.762998,39.879998 L 17.822999,39.879998 L 17.822999,40.28 L 18.753001,40.28 L 18.753001,39.889997 L 18.753001,38.829999 L 19.153,38.829999 L 19.153,37.899998 L 18.763,37.899998 L 17.702998,37.899998 L 17.702998,37.499998 L 16.773,37.499998 L 16.773,37.889998 L 16.773,38.95 L 16.372998,38.95 L 16.372998,39.879998 z" data-channels="26" id="electrode064" style="fill:#0000ff" inkscape:connector-curvature="0"/>
    <path d="M 16.762998,37.379997 L 17.822999,37.379997 L 17.822999,37.78 L 18.753001,37.78 L 18.753001,37.389999 L 18.753001,36.329998 L 19.153,36.329998 L 19.153,35.4 L 18.763,35.4 L 17.702998,35.4 L 17.702998,34.999998 L 16.773,34.999998 L 16.773,35.389998 L 16.773,36.449999 L 16.372998,36.449999 L 16.372998,37.379997 z" data-channels="33" id="electrode065" style="fill:#0000ff" inkscape:connector-curvature="0"/>
    <path d="M 23.762998,30.399998 L 22.703,30.399998 L 22.703,29.999999 L 21.772999,29.999999 L 21.772999,30.389999 L 21.772999,31.449998 L 21.372999,31.449998 L 21.372999,32.379999 L 21.762999,32.379999 L 22.823001,32.379999 L 22.823001,32.779998 L 23.752999,32.779998 L 23.752999,32.389998 L 23.752999,31.33 L 24.152998,31.33 L 24.152998,30.399998 z" data-channels="83" id="electrode041" style="fill:#0000ff" inkscape:connector-curvature="0"/>
    <path d="M 21.263,30.399998 L 20.202999,30.399998 L 20.202999,29.999999 L 19.272998,29.999999 L 19.272998,30.389999 L 19.272998,31.449998 L 18.872999,31.449998 L 18.872999,32.379999 L 19.262999,32.379999 L 20.323,32.379999 L 20.323,32.779998 L 21.252998,32.779998 L 21.252998,32.389998 L 21.252998,31.33 L 21.653,31.33 L 21.653,30.399998 z" data-channels="84" id="electrode042" style="fill:#0000ff" inkscape:connector-curvature="0"/>
    <path d="M 23.762998,27.899998 L 22.703,27.899998 L 22.703,27.499999 L 21.772999,27.499999 L 21.772999,27.889999 L 21.772999,28.95 L 21.372999,28.95 L 21.372999,29.879998 L 21.762999,29.879998 L 22.823001,29.879998 L 22.823001,30.279998 L 23.752999,30.279998 L 23.752999,29.889998 L 23.752999,28.829999 L 24.152998,28.829999 L 24.152998,27.899998 z" data-channels="82" id="electrode043" style="fill:#0000ff" inkscape:connector-curvature="0"/>
    <path d="M 9.2729981,60.399998 L 9.2729981,61.45 L 8.8729989,61.45 L 8.8729989,62.379998 L 13.752999,62.379998 L 13.752999,61.329999 L 14.152999,61.329999 L 14.152999,60.399998 L 11.989999,60.399998 z" data-channels="11" id="electrode061" style="fill:#0000ff" inkscape:connector-curvature="0"/>
    <path d="M 21.263,25.4 L 20.202999,25.4 L 20.202999,24.999998 L 19.272998,24.999998 L 19.272998,25.389998 L 19.272998,26.449999 L 18.872999,26.449999 L 18.872999,27.379998 L 19.262999,27.379998 L 20.323,27.379998 L 20.323,27.78 L 21.252998,27.78 L 21.252998,27.39 L 21.252998,26.329998 L 21.653,26.329998 L 21.653,25.4 z" data-channels="80" id="electrode084" style="fill:#0000ff" inkscape:connector-curvature="0"/>
    <path d="M 28.753,49.879998 L 28.753,48.829999 L 29.153,48.829999 L 29.153,47.899997 L 24.272999,47.899997 L 24.272999,48.949999 L 23.873,48.949999 L 23.873,49.879998 L 26.035999,49.879998 z" data-channels="102" id="electrode077" style="fill:#0000ff" inkscape:connector-curvature="0"/>
    <path d="M 28.753,37.379997 L 28.753,36.329998 L 29.153,36.329998 L 29.153,35.4 L 24.272999,35.4 L 24.272999,36.449999 L 23.873,36.449999 L 23.873,37.379997 L 26.035999,37.379997 z" data-channels="87" id="electrode075" style="fill:#0000ff" inkscape:connector-curvature="0"/>
    <path d="M 28.753,24.88 L 28.753,23.829998 L 29.153,23.829998 L 29.153,22.899999 L 24.272999,22.899999 L 24.272999,23.949999 L 23.873,23.949999 L 23.873,24.88 L 26.035999,24.88 z" data-channels="78" id="electrode089" style="fill:#0000ff" inkscape:connector-curvature="0"/>
    <path d="M 16.762998,29.879998 L 17.822999,29.879998 L 17.822999,30.279998 L 18.753001,30.279998 L 18.753001,29.889998 L 18.753001,28.829999 L 19.153,28.829999 L 19.153,27.899998 L 18.763,27.899998 L 17.702998,27.899998 L 17.702998,27.499999 L 16.773,27.499999 L 16.773,27.889999 L 16.773,28.95 L 16.372998,28.95 L 16.372998,29.879998 z" data-channels="38" id="electrode052" style="fill:#0000ff" inkscape:connector-curvature="0"/>
    <path d="M 16.762998,27.379998 L 17.822999,27.379998 L 17.822999,27.78 L 18.753001,27.78 L 18.753001,27.39 L 18.753001,26.329998 L 19.153,26.329998 L 19.153,25.4 L 18.763,25.4 L 17.702998,25.4 L 17.702998,24.999998 L 16.773,24.999998 L 16.773,25.389998 L 16.773,26.449999 L 16.372998,26.449999 L 16.372998,27.379998 z" data-channels="39" id="electrode032" style="fill:#0000ff" inkscape:connector-curvature="0"/>
    <path d="M 16.762998,34.88 L 17.822999,34.88 L 17.822999,35.279999 L 18.753001,35.279999 L 18.753001,34.889999 L 18.753001,33.829998 L 19.153,33.829998 L 19.153,32.899999 L 18.763,32.899999 L 17.702998,32.899999 L 17.702998,32.5 L 16.773,32.5 L 16.773,32.89 L 16.773,33.949998 L 16.372998,33.949998 L 16.372998,34.88 z" data-channels="34" id="electrode056" style="fill:#0000ff" inkscape:connector-curvature="0"/>
    <path d="M 16.762998,32.379999 L 17.822999,32.379999 L 17.822999,32.779998 L 18.753001,32.779998 L 18.753001,32.389998 L 18.753001,31.33 L 19.153,31.33 L 19.153,30.399998 L 18.763,30.399998 L 17.702998,30.399998 L 17.702998,29.999999 L 16.773,29.999999 L 16.773,30.389999 L 16.773,31.449998 L 16.372998,31.449998 L 16.372998,32.379999 z" data-channels="35" id="electrode054" style="fill:#0000ff" inkscape:connector-curvature="0"/>
    <path d="M 14.263,37.379997 L 15.322999,37.379997 L 15.322999,37.78 L 16.253,37.78 L 16.253,37.389999 L 16.253,36.329998 L 16.652999,36.329998 L 16.652999,35.4 L 16.262999,35.4 L 15.203001,35.4 L 15.203001,34.999998 L 14.272999,34.999998 L 14.272999,35.389998 L 14.272999,36.449999 L 13.873,36.449999 L 13.873,37.379997 z" data-channels="25" id="electrode067" style="fill:#0000ff" inkscape:connector-curvature="0"/>
    <path d="M 21.263,22.899999 L 20.202999,22.899999 L 20.202999,22.5 L 19.272998,22.5 L 19.272998,22.889997 L 19.272998,23.949999 L 18.872999,23.949999 L 18.872999,24.88 L 19.262999,24.88 L 20.323,24.88 L 20.323,25.279999 L 21.252998,25.279999 L 21.252998,24.889999 L 21.252998,23.829998 L 21.653,23.829998 L 21.653,22.899999 z" data-channels="76" id="electrode087" style="fill:#0000ff" inkscape:connector-curvature="0"/>
    <path d="M 23.762998,22.899999 L 22.703,22.899999 L 22.703,22.5 L 21.772999,22.5 L 21.772999,22.889997 L 21.772999,23.949999 L 21.372999,23.949999 L 21.372999,24.88 L 21.762999,24.88 L 22.823001,24.88 L 22.823001,25.279999 L 23.752999,25.279999 L 23.752999,24.889999 L 23.752999,23.829998 L 24.152998,23.829998 L 24.152998,22.899999 z" data-channels="77" id="electrode088" style="fill:#0000ff" inkscape:connector-curvature="0"/>
    <path d="M 23.762998,17.899998 L 22.703,17.899998 L 22.703,17.499999 L 21.772999,17.499999 L 21.772999,17.889999 L 21.772999,18.949997 L 21.372999,18.949997 L 21.372999,19.879999 L 21.762999,19.879999 L 22.823001,19.879999 L 22.823001,20.279998 L 23.752999,20.279998 L 23.752999,19.889998 L 23.752999,18.829999 L 24.152998,18.829999 L 24.152998,17.899998 z" data-channels="73" id="electrode085" style="fill:#0000ff" inkscape:connector-curvature="0"/>
    <path d="M 21.263,20.399999 L 20.202999,20.399999 L 20.202999,20 L 19.272998,20 L 19.272998,20.39 L 19.272998,21.449998 L 18.872999,21.449998 L 18.872999,22.379999 L 19.262999,22.379999 L 20.323,22.379999 L 20.323,22.779998 L 21.252998,22.779998 L 21.252998,22.389998 L 21.252998,21.33 L 21.653,21.33 L 21.653,20.399999 z" data-channels="75" id="electrode086" style="fill:#0000ff" inkscape:connector-curvature="0"/>
    <path d="M 28.753,12.38 L 28.753,11.329997 L 29.153,11.329997 L 29.153,10.399999 L 24.272999,10.399999 L 24.272999,11.449998 L 23.873,11.449998 L 23.873,12.38 L 26.035999,12.38 z" data-channels="68" id="electrode091" style="fill:#0000ff" inkscape:connector-curvature="0"/>
    <path d="M 21.263,17.899998 L 20.202999,17.899998 L 20.202999,17.499999 L 19.272998,17.499999 L 19.272998,17.889999 L 19.272998,18.949997 L 18.872999,18.949997 L 18.872999,19.879999 L 19.262999,19.879999 L 20.323,19.879999 L 20.323,20.279998 L 21.252998,20.279998 L 21.252998,19.889998 L 21.252998,18.829999 L 21.653,18.829999 L 21.653,17.899998 z" data-channels="74" id="electrode082" style="fill:#0000ff" inkscape:connector-curvature="0"/>
    <path d="M 21.263,65.399999 L 20.202999,65.399999 L 20.202999,65 L 19.272998,65 L 19.272998,65.39 L 19.272998,66.449998 L 18.872999,66.449998 L 18.872999,67.38 L 19.262999,67.38 L 20.323,67.38 L 20.323,67.779999 L 21.252998,67.779999 L 21.252998,67.389999 L 21.252998,66.329997 L 21.653,66.329997 L 21.653,65.399999 z" data-channels="112" id="electrode015" style="fill:#0000ff" inkscape:connector-curvature="0"/>
    <path d="M 21.263,67.9 L 20.202999,67.9 L 20.202999,67.499998 L 19.272998,67.499998 L 19.272998,67.889998 L 19.272998,68.949999 L 18.872999,68.949999 L 18.872999,69.879997 L 19.262999,69.879997 L 20.323,69.879997 L 20.323,70.279999 L 21.252998,70.279999 L 21.252998,69.889999 L 21.252998,68.829998 L 21.653,68.829998 L 21.653,67.9 z" data-channels="117" id="electrode030" style="fill:#0000ff" inkscape:connector-curvature="0"/>
    <path d="M 23.762998,65.399999 L 22.703,65.399999 L 22.703,65 L 21.772999,65 L 21.772999,65.39 L 21.772999,66.449998 L 21.372999,66.449998 L 21.372999,67.38 L 21.762999,67.38 L 22.823001,67.38 L 22.823001,67.779999 L 23.752999,67.779999 L 23.752999,67.389999 L 23.752999,66.329997 L 24.152998,66.329997 L 24.152998,65.399999 z" data-channels="119" id="electrode029" style="fill:#0000ff" inkscape:connector-curvature="0"/>
    <path d="M 21.263,70.399997 L 20.202999,70.399997 L 20.202999,69.999998 L 19.272998,69.999998 L 19.272998,70.389998 L 19.272998,71.45 L 18.872999,71.45 L 18.872999,72.379998 L 19.262999,72.379998 L 20.323,72.379998 L 20.323,72.779997 L 21.252998,72.779997 L 21.252998,72.389997 L 21.252998,71.329999 L 21.653,71.329999 L 21.653,70.399997 z" data-channels="116" id="electrode028" style="fill:#0000ff" inkscape:connector-curvature="0"/>
    <path d="M 23.762998,67.9 L 22.703,67.9 L 22.703,67.499998 L 21.772999,67.499998 L 21.772999,67.889998 L 21.772999,68.949999 L 21.372999,68.949999 L 21.372999,69.879997 L 21.762999,69.879997 L 22.823001,69.879997 L 22.823001,70.279999 L 23.752999,70.279999 L 23.752999,69.889999 L 23.752999,68.829998 L 24.152998,68.829998 L 24.152998,67.9 z" data-channels="118" id="electrode083" style="fill:#0000ff" inkscape:connector-curvature="0"/>
    <path d="M 16.762998,22.379999 L 17.822999,22.379999 L 17.822999,22.779998 L 18.753001,22.779998 L 18.753001,22.389998 L 18.753001,21.33 L 19.153,21.33 L 19.153,20.399999 L 18.763,20.399999 L 17.702998,20.399999 L 17.702998,20 L 16.773,20 L 16.773,20.39 L 16.773,21.449998 L 16.372998,21.449998 L 16.372998,22.379999 z" data-channels="44" id="electrode033" style="fill:#0000ff" inkscape:connector-curvature="0"/>
    <path d="M 14.263,24.88 L 15.322999,24.88 L 15.322999,25.279999 L 16.253,25.279999 L 16.253,24.889999 L 16.253,23.829998 L 16.652999,23.829998 L 16.652999,22.899999 L 16.262999,22.899999 L 15.203001,22.899999 L 15.203001,22.5 L 14.272999,22.5 L 14.272999,22.889997 L 14.272999,23.949999 L 13.873,23.949999 L 13.873,24.88 z" data-channels="42" id="electrode035" style="fill:#0000ff" inkscape:connector-curvature="0"/>
    <path d="M 16.762998,17.379998 L 17.822999,17.379998 L 17.822999,17.78 L 18.753001,17.78 L 18.753001,17.39 L 18.753001,16.329999 L 19.153,16.329999 L 19.153,15.399997 L 18.763,15.399997 L 17.702998,15.399997 L 17.702998,14.999998 L 16.773,14.999998 L 16.773,15.389998 L 16.773,16.45 L 16.372998,16.45 L 16.372998,17.379998 z" data-channels="48" id="electrode017" style="fill:#0000ff" inkscape:connector-curvature="0"/>
    <path d="M 16.762998,19.879999 L 17.822999,19.879999 L 17.822999,20.279998 L 18.753001,20.279998 L 18.753001,19.889998 L 18.753001,18.829999 L 19.153,18.829999 L 19.153,17.899998 L 18.763,17.899998 L 17.702998,17.899998 L 17.702998,17.499999 L 16.773,17.499999 L 16.773,17.889999 L 16.773,18.949997 L 16.372998,18.949997 L 16.372998,19.879999 z" data-channels="45" id="electrode027" style="fill:#0000ff" inkscape:connector-curvature="0"/>
    <path d="M 16.762998,24.88 L 17.822999,24.88 L 17.822999,25.279999 L 18.753001,25.279999 L 18.753001,24.889999 L 18.753001,23.829998 L 19.153,23.829998 L 19.153,22.899999 L 18.763,22.899999 L 17.702998,22.899999 L 17.702998,22.5 L 16.773,22.5 L 16.773,22.889997 L 16.773,23.949999 L 16.372998,23.949999 L 16.372998,24.88 z" data-channels="43" id="electrode031" style="fill:#0000ff" inkscape:connector-curvature="0"/>
    <path d="M 23.762998,10.399999 L 22.703,10.399999 L 22.703,9.9999998 L 21.772999,9.9999998 L 21.772999,10.39 L 21.772999,11.449998 L 21.372999,11.449998 L 21.372999,12.38 L 21.762999,12.38 L 22.823001,12.38 L 22.823001,12.779999 L 23.752999,12.779999 L 23.752999,12.389999 L 23.752999,11.329997 L 24.152998,11.329997 L 24.152998,10.399999 z" data-channels="67" id="electrode080" style="fill:#0000ff" inkscape:connector-curvature="0"/>
    <path d="M 21.263,12.9 L 20.202999,12.9 L 20.202999,12.499998 L 19.272998,12.499998 L 19.272998,12.889998 L 19.272998,13.949999 L 18.872999,13.949999 L 18.872999,14.88 L 19.262999,14.88 L 20.323,14.88 L 20.323,15.279999 L 21.252998,15.279999 L 21.252998,14.889999 L 21.252998,13.829998 L 21.653,13.829998 L 21.653,12.9 z" data-channels="70" id="electrode081" style="fill:#0000ff" inkscape:connector-curvature="0"/>
    <path d="M 21.263,15.399997 L 20.202999,15.399997 L 20.202999,14.999998 L 19.272998,14.999998 L 19.272998,15.389998 L 19.272998,16.45 L 18.872999,16.45 L 18.872999,17.379998 L 19.262999,17.379998 L 20.323,17.379998 L 20.323,17.78 L 21.252998,17.78 L 21.252998,17.39 L 21.252998,16.329999 L 21.653,16.329999 L 21.653,15.399997 z" data-channels="71" id="electrode078" style="fill:#0000ff" inkscape:connector-curvature="0"/>
    <path d="M 23.762998,15.399997 L 22.703,15.399997 L 22.703,14.999998 L 21.772999,14.999998 L 21.772999,15.389998 L 21.772999,16.45 L 21.372999,16.45 L 21.372999,17.379998 L 21.762999,17.379998 L 22.823001,17.379998 L 22.823001,17.78 L 23.752999,17.78 L 23.752999,17.39 L 23.752999,16.329999 L 24.152998,16.329999 L 24.152998,15.399997 z" data-channels="72" id="electrode079" style="fill:#0000ff" inkscape:connector-curvature="0"/>
    <path d="M 21.263,10.399999 L 20.202999,10.399999 L 20.202999,9.9999998 L 19.272998,9.9999998 L 19.272998,10.39 L 19.272998,11.449998 L 18.872999,11.449998 L 18.872999,12.38 L 19.262999,12.38 L 20.323,12.38 L 20.323,12.779999 L 21.252998,12.779999 L 21.252998,12.389999 L 21.252998,11.329997 L 21.653,11.329997 L 21.653,10.399999 z" data-channels="66" id="electrode100" style="fill:#0000ff" inkscape:connector-curvature="0"/>
    <path d="M 9.2729981,10.399999 L 9.2729981,11.449998 L 8.8729989,11.449998 L 8.8729989,12.38 L 13.752999,12.38 L 13.752999,11.329997 L 14.152999,11.329997 L 14.152999,10.399999 L 11.989999,10.399999 z" data-channels="51" id="electrode034" style="fill:#0000ff" inkscape:connector-curvature="0"/>
    <path d="M 9.2729981,22.899999 L 9.2729981,23.949999 L 8.8729989,23.949999 L 8.8729989,24.88 L 13.752999,24.88 L 13.752999,23.829998 L 14.152999,23.829998 L 14.152999,22.899999 L 11.989999,22.899999 z" data-channels="41" id="electrode048" style="fill:#0000ff" inkscape:connector-curvature="0"/>
    <path d="M 9.2729981,35.4 L 9.2729981,36.449999 L 8.8729989,36.449999 L 8.8729989,37.379997 L 13.752999,37.379997 L 13.752999,36.329998 L 14.152999,36.329998 L 14.152999,35.4 L 11.989999,35.4 z" data-channels="32" id="electrode046" style="fill:#0000ff" inkscape:connector-curvature="0"/>
    <path d="M 9.2729981,47.899997 L 9.2729981,48.949999 L 8.8729989,48.949999 L 8.8729989,49.879998 L 13.752999,49.879998 L 13.752999,48.829999 L 14.152999,48.829999 L 14.152999,47.899997 L 11.989999,47.899997 z" data-channels="17" id="electrode059" style="fill:#0000ff" inkscape:connector-curvature="0"/>
    <path d="M 0,58.174997 L 0,64.604999 L 11.98,64.604999 L 11.98,62.499999 L 11.482999,62.499999 L 9.262999,62.499999 L 8.752998,62.499999 L 8.752998,61.329999 L 9.1530001,61.329999 L 9.1530001,60.28 L 11.482999,60.28 L 11.98,60.28 L 11.98,58.174997 Z" data-channels="10" id="electrode058" style="fill:#0000ff" inkscape:connector-curvature="0"/>
    <path d="M 21.263,2.8999998 L 20.202999,2.8999998 L 20.202999,2.4999978 L 19.272998,2.4999978 L 19.272998,2.8899979 L 19.272998,3.9499992 L 18.872999,3.9499992 L 18.872999,4.8799976 L 19.262999,4.8799976 L 20.323,4.8799976 L 20.323,5.2799996 L 21.252998,5.2799996 L 21.252998,4.8899995 L 21.252998,3.8299983 L 21.653,3.8299983 L 21.653,2.8999998 z" data-channels="61" id="electrode102" style="fill:#0000ff" inkscape:connector-curvature="0"/>
    <path d="M 21.263,7.8999983 L 20.202999,7.8999983 L 20.202999,7.4999991 L 19.272998,7.4999991 L 19.272998,7.8899992 L 19.272998,8.9499976 L 18.872999,8.9499976 L 18.872999,9.8799989 L 19.262999,9.8799989 L 20.323,9.8799989 L 20.323,10.279998 L 21.252998,10.279998 L 21.252998,9.889998 L 21.252998,8.8299996 L 21.653,8.8299996 L 21.653,7.8999983 z" data-channels="65" id="electrode092" style="fill:#0000ff" inkscape:connector-curvature="0"/>
    <path d="M 23.762998,5.3999977 L 22.703,5.3999977 L 22.703,4.9999985 L 21.772999,4.9999985 L 21.772999,5.3899985 L 21.772999,6.4499998 L 21.372999,6.4499998 L 21.372999,7.3799982 L 21.762999,7.3799982 L 22.823001,7.3799982 L 22.823001,7.7799974 L 23.752999,7.7799974 L 23.752999,7.3899974 L 23.752999,6.3299989 L 24.152998,6.3299989 L 24.152998,5.3999977 z" data-channels="63" id="electrode094" style="fill:#0000ff" inkscape:connector-curvature="0"/>
    <path d="M 21.263,5.3999977 L 20.202999,5.3999977 L 20.202999,4.9999985 L 19.272998,4.9999985 L 19.272998,5.3899985 L 19.272998,6.4499998 L 18.872999,6.4499998 L 18.872999,7.3799982 L 19.262999,7.3799982 L 20.323,7.3799982 L 20.323,7.7799974 L 21.252998,7.7799974 L 21.252998,7.3899974 L 21.252998,6.3299989 L 21.653,6.3299989 L 21.653,5.3999977 z" data-channels="64" id="electrode095" style="fill:#0000ff" inkscape:connector-curvature="0"/>
    <path d="M 23.762998,2.8999998 L 22.703,2.8999998 L 22.703,2.4999978 L 21.772999,2.4999978 L 21.772999,2.8899979 L 21.772999,3.9499992 L 21.372999,3.9499992 L 21.372999,4.8799976 L 21.762999,4.8799976 L 22.823001,4.8799976 L 22.823001,5.2799996 L 23.752999,5.2799996 L 23.752999,4.8899995 L 23.752999,3.8299983 L 24.152998,3.8299983 L 24.152998,2.8999998 z" data-channels="62" id="electrode096" style="fill:#0000ff" inkscape:connector-curvature="0"/>
    <path d="M 14.152999,17.499999 L 13.752999,17.499999 L 13.752999,16.45 L 11.373,16.45 L 11.373,18.512499 L 14.152999,18.512499 Z" data-channels="46" id="electrode018" style="fill:#0000ff" inkscape:connector-curvature="0"/>
    <path d="M 14.152999,29.999999 L 13.752999,29.999999 L 13.752999,28.95 L 11.373,28.95 L 11.373,31.0125 L 14.152999,31.0125 Z" data-channels="36" id="electrode051" style="fill:#0000ff" inkscape:connector-curvature="0"/>
  </g>
  <g id="layer2" inkscape:groupmode="layer" inkscape:label="Connections" style="display:inline">
    <line id="line2" style="stroke:#000000;stroke-width:0.1" x1="22.763" x2="22.763" y1="56.389999" y2="53.889999"/>
    <line id="line3" style="stroke:#000000;stroke-width:0.1" x1="22.763" x2="20.263" y1="56.389999" y2="56.389999"/>
    <line id="line4" style="stroke:#000000;stroke-width:0.1" x1="20.263" x2="20.263" y1="61.389999" y2="58.889999"/>
    <line id="line5" style="stroke:#000000;stroke-width:0.1" x1="20.263" x2="20.263" y1="61.389999" y2="63.889999"/>
    <line id="line6" style="stroke:#000000;stroke-width:0.1" x1="20.263" x2="22.763" y1="61.389999" y2="61.389999"/>
    <line id="line8" style="stroke:#000000;stroke-width:0.1" x1="20.263" x2="17.763" y1="61.389999" y2="61.389999"/>
    <line id="line11" style="stroke:#000000;stroke-width:0.1" x1="20.263" x2="20.263" y1="58.889999" y2="56.389999"/>
    <line id="line12" style="stroke:#000000;stroke-width:0.1" x1="20.263" x2="17.763" y1="58.889999" y2="58.889999"/>
    <line id="line18" style="stroke:#000000;stroke-width:0.1" x1="20.263" x2="17.763" y1="63.889999" y2="63.889999"/>
    <line id="line19" style="stroke:#000000;stroke-width:0.1" x1="20.263" x2="20.263" y1="63.889999" y2="66.389999"/>
    <line id="line21" style="stroke:#000000;stroke-width:0.1" x1="22.763" x2="26.513" y1="61.389999" y2="61.389999"/>
    <line id="line22" style="stroke:#000000;stroke-width:0.1" x1="15.263" x2="17.763" y1="30.139999" y2="28.889999"/>
    <line id="line25" style="stroke:#000000;stroke-width:0.1" x1="15.263" x2="17.763" y1="30.139999" y2="31.389999"/>
    <line id="line26" style="stroke:#000000;stroke-width:0.1" x1="15.263" x2="12.763" y1="30.139999" y2="29.981199"/>
    <line id="line27" style="stroke:#000000;stroke-width:0.1" x1="15.263" x2="12.763" y1="42.639999" y2="42.798698"/>
    <line id="line29" style="stroke:#000000;stroke-width:0.1" x1="15.263" x2="17.763" y1="42.639999" y2="43.889999"/>
    <line id="line30" style="stroke:#000000;stroke-width:0.1" x1="15.263" x2="17.763" y1="42.639999" y2="41.389999"/>
    <line id="line32" style="stroke:#000000;stroke-width:0.1" x1="12.763" x2="15.263" y1="55.298698" y2="55.139999"/>
    <line id="line35" style="stroke:#000000;stroke-width:0.1" x1="15.263" x2="17.763" y1="17.639999" y2="16.389999"/>
    <line id="line36" style="stroke:#000000;stroke-width:0.1" x1="15.263" x2="17.763" y1="17.639999" y2="18.889999"/>
    <line id="line37" style="stroke:#000000;stroke-width:0.1" x1="15.263" x2="12.763" y1="17.639999" y2="17.481199"/>
    <line id="line38" style="stroke:#000000;stroke-width:0.1" x1="15.263" x2="17.763" y1="3.8900001" y2="3.8900001"/>
    <line id="line40" style="stroke:#000000;stroke-width:0.1" x1="15.263" x2="15.263" y1="3.8900001" y2="6.3899999"/>
    <line id="line43" style="stroke:#000000;stroke-width:0.1" x1="17.763" x2="17.763" y1="3.8900001" y2="1.39"/>
    <line id="line45" style="stroke:#000000;stroke-width:0.1" x1="17.763" x2="17.763" y1="3.8900001" y2="6.3899999"/>
    <line id="line46" style="stroke:#000000;stroke-width:0.1" x1="17.763" x2="20.263" y1="3.8900001" y2="3.8900001"/>
    <line id="line48" style="stroke:#000000;stroke-width:0.1" x1="20.263" x2="17.763" y1="1.39" y2="1.39"/>
    <line id="line49" style="stroke:#000000;stroke-width:0.1" x1="20.263" x2="20.263" y1="1.39" y2="3.8900001"/>
    <line id="line53" style="stroke:#000000;stroke-width:0.1" x1="15.263" x2="17.763" y1="6.3899999" y2="6.3899999"/>
    <line id="line54" style="stroke:#000000;stroke-width:0.1" x1="5.9899998" x2="11.513" y1="11.39" y2="11.39"/>
    <line id="line55" style="stroke:#000000;stroke-width:0.1" x1="5.9899998" x2="11.513" y1="23.889999" y2="23.889999"/>
    <line id="line58" style="stroke:#000000;stroke-width:0.1" x1="22.763" x2="20.263" y1="48.889999" y2="48.889999"/>
    <line id="line59" style="stroke:#000000;stroke-width:0.1" x1="22.763" x2="26.513" y1="48.889999" y2="48.889999"/>
    <line id="line60" style="stroke:#000000;stroke-width:0.1" x1="20.263" x2="20.263" y1="51.389999" y2="53.889999"/>
    <line id="line62" style="stroke:#000000;stroke-width:0.1" x1="20.263" x2="20.263" y1="51.389999" y2="48.889999"/>
    <line id="line63" style="stroke:#000000;stroke-width:0.1" x1="20.263" x2="17.763" y1="51.389999" y2="51.389999"/>
    <line id="line66" style="stroke:#000000;stroke-width:0.1" x1="5.9899998" x2="11.513" y1="36.389999" y2="36.389999"/>
    <line id="line67" style="stroke:#000000;stroke-width:0.1" x1="20.263" x2="22.763" y1="53.889999" y2="53.889999"/>
    <line id="line68" style="stroke:#000000;stroke-width:0.1" x1="20.263" x2="20.263" y1="53.889999" y2="56.389999"/>
    <line id="line71" style="stroke:#000000;stroke-width:0.1" x1="20.263" x2="17.763" y1="53.889999" y2="53.889999"/>
    <line id="line74" style="stroke:#000000;stroke-width:0.1" x1="20.263" x2="17.763" y1="56.389999" y2="56.389999"/>
    <line id="line77" style="stroke:#000000;stroke-width:0.1" x1="15.263" x2="17.763" y1="68.889999" y2="68.889999"/>
    <line id="line79" style="stroke:#000000;stroke-width:0.1" x1="15.263" x2="15.263" y1="68.889999" y2="66.389999"/>
    <line id="line80" style="stroke:#000000;stroke-width:0.1" x1="17.763" x2="17.763" y1="71.389999" y2="68.889999"/>
    <line id="line82" style="stroke:#000000;stroke-width:0.1" x1="17.763" x2="20.263" y1="71.389999" y2="71.389999"/>
    <line id="line83" style="stroke:#000000;stroke-width:0.1" x1="17.763" x2="17.763" y1="68.889999" y2="66.389999"/>
    <line id="line86" style="stroke:#000000;stroke-width:0.1" x1="17.763" x2="20.263" y1="68.889999" y2="68.889999"/>
    <line id="line88" style="stroke:#000000;stroke-width:0.1" x1="5.9899998" x2="11.513" y1="48.889999" y2="48.889999"/>
    <line id="line89" style="stroke:#000000;stroke-width:0.1" x1="17.763" x2="15.263" y1="66.389999" y2="66.389999"/>
    <line id="line90" style="stroke:#000000;stroke-width:0.1" x1="17.763" x2="17.763" y1="66.389999" y2="63.889999"/>
    <line id="line91" style="stroke:#000000;stroke-width:0.1" x1="17.763" x2="20.263" y1="66.389999" y2="66.389999"/>
    <line id="line94" style="stroke:#000000;stroke-width:0.1" x1="15.263" x2="17.763" y1="55.139999" y2="56.389999"/>
    <line id="line96" style="stroke:#000000;stroke-width:0.1" x1="15.263" x2="17.763" y1="55.139999" y2="53.889999"/>
    <line id="line97" style="stroke:#000000;stroke-width:0.1" x1="17.763" x2="15.263" y1="11.39" y2="11.39"/>
    <line id="line98" style="stroke:#000000;stroke-width:0.1" x1="17.763" x2="17.763" y1="11.39" y2="8.8900003"/>
    <line id="line99" style="stroke:#000000;stroke-width:0.1" x1="17.763" x2="17.763" y1="11.39" y2="13.89"/>
    <line id="line101" style="stroke:#000000;stroke-width:0.1" x1="17.763" x2="20.263" y1="11.39" y2="11.39"/>
    <line id="line105" style="stroke:#000000;stroke-width:0.1" x1="15.263" x2="11.513" y1="11.39" y2="11.39"/>
    <line id="line106" style="stroke:#000000;stroke-width:0.1" x1="17.763" x2="17.763" y1="8.8900003" y2="6.3899999"/>
    <line id="line108" style="stroke:#000000;stroke-width:0.1" x1="17.763" x2="20.263" y1="8.8900003" y2="8.8900003"/>
    <line id="line112" style="stroke:#000000;stroke-width:0.1" x1="17.763" x2="20.263" y1="6.3899999" y2="6.3899999"/>
    <line id="line113" style="stroke:#000000;stroke-width:0.1" x1="17.763" x2="17.763" y1="13.89" y2="16.389999"/>
    <line id="line114" style="stroke:#000000;stroke-width:0.1" x1="17.763" x2="20.263" y1="13.89" y2="13.89"/>
    <line id="line118" style="stroke:#000000;stroke-width:0.1" x1="20.263" x2="20.263" y1="46.389999" y2="48.889999"/>
    <line id="line119" style="stroke:#000000;stroke-width:0.1" x1="20.263" x2="20.263" y1="46.389999" y2="43.889999"/>
    <line id="line122" style="stroke:#000000;stroke-width:0.1" x1="20.263" x2="17.763" y1="46.389999" y2="46.389999"/>
    <line id="line125" style="stroke:#000000;stroke-width:0.1" x1="20.263" x2="17.763" y1="48.889999" y2="48.889999"/>
    <line id="line127" style="stroke:#000000;stroke-width:0.1" x1="20.263" x2="22.763" y1="43.889999" y2="43.889999"/>
    <line id="line129" style="stroke:#000000;stroke-width:0.1" x1="20.263" x2="20.263" y1="43.889999" y2="41.389999"/>
    <line id="line131" style="stroke:#000000;stroke-width:0.1" x1="20.263" x2="17.763" y1="43.889999" y2="43.889999"/>
    <line id="line133" style="stroke:#000000;stroke-width:0.1" x1="22.763" x2="22.763" y1="43.889999" y2="41.389999"/>
    <line id="line136" style="stroke:#000000;stroke-width:0.1" x1="17.763" x2="17.763" y1="58.889999" y2="61.389999"/>
    <line id="line137" style="stroke:#000000;stroke-width:0.1" x1="17.763" x2="17.763" y1="58.889999" y2="56.389999"/>
    <line id="line138" style="stroke:#000000;stroke-width:0.1" x1="15.263" x2="17.763" y1="61.389999" y2="61.389999"/>
    <line id="line140" style="stroke:#000000;stroke-width:0.1" x1="15.263" x2="11.513" y1="61.389999" y2="61.389999"/>
    <line id="line141" style="stroke:#000000;stroke-width:0.1" x1="22.763" x2="20.263" y1="41.389999" y2="41.389999"/>
    <line id="line143" style="stroke:#000000;stroke-width:0.1" x1="17.763" x2="17.763" y1="61.389999" y2="63.889999"/>
    <line id="line145" style="stroke:#000000;stroke-width:0.1" x1="32.035999" x2="26.513" y1="11.39" y2="11.39"/>
    <line id="line146" style="stroke:#000000;stroke-width:0.1" x1="32.035999" x2="26.513" y1="61.389999" y2="61.389999"/>
    <line id="line147" style="stroke:#000000;stroke-width:0.1" x1="32.035999" x2="26.513" y1="48.889999" y2="48.889999"/>
    <line id="line148" style="stroke:#000000;stroke-width:0.1" x1="32.035999" x2="26.513" y1="36.389999" y2="36.389999"/>
    <line id="line149" style="stroke:#000000;stroke-width:0.1" x1="32.035999" x2="26.513" y1="23.889999" y2="23.889999"/>
    <line id="line150" style="stroke:#000000;stroke-width:0.1" x1="22.763" x2="20.263" y1="36.389999" y2="36.389999"/>
    <line id="line153" style="stroke:#000000;stroke-width:0.1" x1="22.763" x2="26.513" y1="36.389999" y2="36.389999"/>
    <line id="line154" style="stroke:#000000;stroke-width:0.1" x1="20.263" x2="20.263" y1="36.389999" y2="38.889999"/>
    <line id="line155" style="stroke:#000000;stroke-width:0.1" x1="20.263" x2="20.263" y1="36.389999" y2="33.889999"/>
    <line id="line157" style="stroke:#000000;stroke-width:0.1" x1="20.263" x2="17.763" y1="36.389999" y2="36.389999"/>
    <line id="line159" style="stroke:#000000;stroke-width:0.1" x1="20.263" x2="20.263" y1="41.389999" y2="38.889999"/>
    <line id="line161" style="stroke:#000000;stroke-width:0.1" x1="20.263" x2="17.763" y1="41.389999" y2="41.389999"/>
    <line id="line163" style="stroke:#000000;stroke-width:0.1" x1="17.763" x2="17.763" y1="56.389999" y2="53.889999"/>
    <line id="line165" style="stroke:#000000;stroke-width:0.1" x1="20.263" x2="17.763" y1="38.889999" y2="38.889999"/>
    <line id="line167" style="stroke:#000000;stroke-width:0.1" x1="17.763" x2="17.763" y1="51.389999" y2="53.889999"/>
    <line id="line169" style="stroke:#000000;stroke-width:0.1" x1="17.763" x2="17.763" y1="51.389999" y2="48.889999"/>
    <line id="line172" style="stroke:#000000;stroke-width:0.1" x1="20.263" x2="20.263" y1="33.889999" y2="31.389999"/>
    <line id="line173" style="stroke:#000000;stroke-width:0.1" x1="20.263" x2="17.763" y1="33.889999" y2="33.889999"/>
    <line id="line175" style="stroke:#000000;stroke-width:0.1" x1="15.263" x2="17.763" y1="48.889999" y2="48.889999"/>
    <line id="line177" style="stroke:#000000;stroke-width:0.1" x1="15.263" x2="11.513" y1="48.889999" y2="48.889999"/>
    <line id="line178" style="stroke:#000000;stroke-width:0.1" x1="17.763" x2="17.763" y1="48.889999" y2="46.389999"/>
    <line id="line180" style="stroke:#000000;stroke-width:0.1" x1="20.263" x2="20.263" y1="28.889999" y2="31.389999"/>
    <line id="line181" style="stroke:#000000;stroke-width:0.1" x1="20.263" x2="22.763" y1="28.889999" y2="28.889999"/>
    <line id="line182" style="stroke:#000000;stroke-width:0.1" x1="20.263" x2="20.263" y1="28.889999" y2="26.389999"/>
    <line id="line183" style="stroke:#000000;stroke-width:0.1" x1="20.263" x2="17.763" y1="28.889999" y2="28.889999"/>
    <line id="line186" style="stroke:#000000;stroke-width:0.1" x1="17.763" x2="17.763" y1="46.389999" y2="43.889999"/>
    <line id="line187" style="stroke:#000000;stroke-width:0.1" x1="17.763" x2="17.763" y1="43.889999" y2="41.389999"/>
    <line id="line188" style="stroke:#000000;stroke-width:0.1" x1="17.763" x2="17.763" y1="41.389999" y2="38.889999"/>
    <line id="line189" style="stroke:#000000;stroke-width:0.1" x1="17.763" x2="17.763" y1="38.889999" y2="36.389999"/>
    <line id="line191" style="stroke:#000000;stroke-width:0.1" x1="17.763" x2="17.763" y1="36.389999" y2="33.889999"/>
    <line id="line192" style="stroke:#000000;stroke-width:0.1" x1="17.763" x2="15.263" y1="36.389999" y2="36.389999"/>
    <line id="line193" style="stroke:#000000;stroke-width:0.1" x1="22.763" x2="20.263" y1="31.389999" y2="31.389999"/>
    <line id="line194" style="stroke:#000000;stroke-width:0.1" x1="22.763" x2="22.763" y1="31.389999" y2="28.889999"/>
    <line id="line198" style="stroke:#000000;stroke-width:0.1" x1="20.263" x2="17.763" y1="31.389999" y2="31.389999"/>
    <line id="line200" style="stroke:#000000;stroke-width:0.1" x1="11.513" x2="5.9899998" y1="61.389999" y2="61.389999"/>
    <line id="line202" style="stroke:#000000;stroke-width:0.1" x1="20.263" x2="17.763" y1="26.389999" y2="26.389999"/>
    <line id="line203" style="stroke:#000000;stroke-width:0.1" x1="20.263" x2="20.263" y1="26.389999" y2="23.889999"/>
    <line id="line206" style="stroke:#000000;stroke-width:0.1" x1="26.513" x2="22.763" y1="23.889999" y2="23.889999"/>
    <line id="line207" style="stroke:#000000;stroke-width:0.1" x1="17.763" x2="17.763" y1="28.889999" y2="26.389999"/>
    <line id="line208" style="stroke:#000000;stroke-width:0.1" x1="17.763" x2="17.763" y1="28.889999" y2="31.389999"/>
    <line id="line211" style="stroke:#000000;stroke-width:0.1" x1="17.763" x2="17.763" y1="26.389999" y2="23.889999"/>
    <line id="line212" style="stroke:#000000;stroke-width:0.1" x1="17.763" x2="17.763" y1="33.889999" y2="31.389999"/>
    <line id="line214" style="stroke:#000000;stroke-width:0.1" x1="15.263" x2="11.513" y1="36.389999" y2="36.389999"/>
    <line id="line215" style="stroke:#000000;stroke-width:0.1" x1="20.263" x2="22.763" y1="23.889999" y2="23.889999"/>
    <line id="line216" style="stroke:#000000;stroke-width:0.1" x1="20.263" x2="20.263" y1="23.889999" y2="21.389999"/>
    <line id="line218" style="stroke:#000000;stroke-width:0.1" x1="20.263" x2="17.763" y1="23.889999" y2="23.889999"/>
    <line id="line221" style="stroke:#000000;stroke-width:0.1" x1="22.763" x2="20.263" y1="18.889999" y2="18.889999"/>
    <line id="line223" style="stroke:#000000;stroke-width:0.1" x1="22.763" x2="22.763" y1="18.889999" y2="16.389999"/>
    <line id="line224" style="stroke:#000000;stroke-width:0.1" x1="20.263" x2="20.263" y1="21.389999" y2="18.889999"/>
    <line id="line225" style="stroke:#000000;stroke-width:0.1" x1="20.263" x2="17.763" y1="21.389999" y2="21.389999"/>
    <line id="line228" style="stroke:#000000;stroke-width:0.1" x1="26.513" x2="22.763" y1="11.39" y2="11.39"/>
    <line id="line231" style="stroke:#000000;stroke-width:0.1" x1="20.263" x2="17.763" y1="18.889999" y2="18.889999"/>
    <line id="line232" style="stroke:#000000;stroke-width:0.1" x1="20.263" x2="20.263" y1="18.889999" y2="16.389999"/>
    <line id="line234" style="stroke:#000000;stroke-width:0.1" x1="20.263" x2="20.263" y1="66.389999" y2="68.889999"/>
    <line id="line235" style="stroke:#000000;stroke-width:0.1" x1="20.263" x2="22.763" y1="66.389999" y2="66.389999"/>
    <line id="line238" style="stroke:#000000;stroke-width:0.1" x1="20.263" x2="20.263" y1="68.889999" y2="71.389999"/>
    <line id="line239" style="stroke:#000000;stroke-width:0.1" x1="20.263" x2="22.763" y1="68.889999" y2="68.889999"/>
    <line id="line240" style="stroke:#000000;stroke-width:0.1" x1="22.763" x2="22.763" y1="66.389999" y2="68.889999"/>
    <line id="line243" style="stroke:#000000;stroke-width:0.1" x1="17.763" x2="17.763" y1="21.389999" y2="18.889999"/>
    <line id="line244" style="stroke:#000000;stroke-width:0.1" x1="17.763" x2="17.763" y1="21.389999" y2="23.889999"/>
    <line id="line245" style="stroke:#000000;stroke-width:0.1" x1="15.263" x2="17.763" y1="23.889999" y2="23.889999"/>
    <line id="line246" style="stroke:#000000;stroke-width:0.1" x1="15.263" x2="11.513" y1="23.889999" y2="23.889999"/>
    <line id="line247" style="stroke:#000000;stroke-width:0.1" x1="17.763" x2="17.763" y1="16.389999" y2="18.889999"/>
    <line id="line249" style="stroke:#000000;stroke-width:0.1" x1="17.763" x2="20.263" y1="16.389999" y2="16.389999"/>
    <line id="line252" style="stroke:#000000;stroke-width:0.1" x1="22.763" x2="20.263" y1="11.39" y2="11.39"/>
    <line id="line254" style="stroke:#000000;stroke-width:0.1" x1="20.263" x2="20.263" y1="13.89" y2="16.389999"/>
    <line id="line256" style="stroke:#000000;stroke-width:0.1" x1="20.263" x2="20.263" y1="13.89" y2="11.39"/>
    <line id="line257" style="stroke:#000000;stroke-width:0.1" x1="20.263" x2="22.763" y1="16.389999" y2="16.389999"/>
    <line id="line258" style="stroke:#000000;stroke-width:0.1" x1="20.263" x2="20.263" y1="11.39" y2="8.8900003"/>
    <line id="line260" style="stroke:#000000;stroke-width:0.1" x1="20.263" x2="20.263" y1="3.8900001" y2="6.3899999"/>
    <line id="line261" style="stroke:#000000;stroke-width:0.1" x1="20.263" x2="22.763" y1="3.8900001" y2="3.8900001"/>
    <line id="line263" style="stroke:#000000;stroke-width:0.1" x1="20.263" x2="20.263" y1="8.8900003" y2="6.3899999"/>
    <line id="line264" style="stroke:#000000;stroke-width:0.1" x1="22.763" x2="20.263" y1="6.3899999" y2="6.3899999"/>
    <line id="line265" style="stroke:#000000;stroke-width:0.1" x1="22.763" x2="22.763" y1="6.3899999" y2="3.8900001"/>
  </g>
</svg>