 <svg version="1.0" xmlns="http://www.w3.org/2000/svg" width="700.000000pt" height="190.000000pt" viewBox="0 0 700.000000 190.000000" preserveAspectRatio="xMidYMid meet">
<metadata>
Created by potrace 1.12, written by Peter Selinger 2001-2015
</metadata>
<g transform="translate(0.000000,190.000000) scale(0.100000,-0.100000)" fill="#000000" stroke="none">
<path d="M50 1125 l0 -625 125 0 125 0 2 498 3 497 120 0 120 0 3 -497 2 -498
125 0 125 0 2 498 3 497 120 0 120 0 3 -498 2 -498 123 3 122 3 0 620 0 620
-622 3 -623 2 0 -625z"></path>
<path d="M1430 1625 l0 -125 125 0 125 0 0 125 0 125 -125 0 -125 0 0 -125z"></path>
<path d="M3940 1125 l0 -625 315 0 314 0 3 58 3 57 58 3 57 3 0 504 0 504 -57
3 -58 3 -3 58 -3 57 -314 0 -315 0 0 -625z m495 0 l0 -370 -120 0 -120 0 -3
360 c-1 198 0 366 3 373 3 9 34 12 122 10 l118 -3 0 -370z"></path>
<path d="M1548 1382 l-118 -3 0 -439 0 -440 125 0 125 0 0 439 c0 242 -3 441
-7 443 -5 2 -61 2 -125 0z"></path>
<path d="M1810 940 l0 -440 318 2 317 3 0 185 0 185 -127 3 -128 3 0 -66 0
-66 -62 3 -63 3 -3 188 -2 187 64 0 65 0 3 -62 3 -63 125 0 125 0 0 185 0 185
-317 3 -318 2 0 -440z"></path>
<path d="M2560 940 l0 -440 125 0 125 0 0 315 0 314 128 3 127 3 3 123 3 122
-256 0 -255 0 0 -440z"></path>
<path d="M3190 940 l0 -440 318 2 317 3 0 435 0 435 -317 3 -318 2 0 -440z
m380 0 l0 -191 -62 3 -63 3 -3 188 -2 187 65 0 65 0 0 -190z"></path>
<path d="M4820 940 l0 -440 125 0 125 0 0 315 0 314 128 3 127 3 3 123 3 122
-256 0 -255 0 0 -440z"></path>
<path d="M5452 943 l3 -438 315 0 315 0 3 438 2 437 -320 0 -320 0 2 -437z
m378 -3 l0 -191 -62 3 -63 3 -3 175 c-1 96 0 180 2 187 4 9 26 13 66 13 l60 0
0 -190z"></path>
<path d="M6200 750 l0 -630 125 0 125 0 2 187 3 188 188 5 c103 3 187 8 187
13 0 4 0 201 0 437 l0 430 -315 0 -315 0 0 -630z m380 190 l0 -191 -62 3 -63
3 -3 188 -2 187 65 0 65 0 0 -190z"></path>
</g>
</svg>